<svg width="45" height="45" viewBox="0 0 45 45" fill="none" xmlns="http://www.w3.org/2000/svg">
<rect x="0.5" y="0.5" width="44" height="44" rx="4.5" stroke="black" stroke-opacity="0.1"/>
<path d="M13.4349 13C13.1952 13 13 13.1746 13 13.4143V30.8274C13 31.0654 13.1952 31.2623 13.4349 31.2623H19.0863V30.3926H13.8697V13.8492H30.3926V23.8697H31.2623V13.4143C31.2623 13.1746 31.0654 13 30.8274 13H13.4349ZM19.956 15.1743C19.2421 15.1743 18.6514 15.7632 18.6514 16.4789C18.6514 16.5936 18.6977 16.7048 18.7815 16.7853C18.9339 17.3366 19.3602 17.7834 19.956 17.7834H24.3046C24.9004 17.7834 25.3267 17.3366 25.4807 16.7853C25.5629 16.7048 25.6091 16.5936 25.6091 16.4789C25.6091 15.7632 25.0202 15.1743 24.3046 15.1743H19.956ZM19.956 16.044H24.3046C24.5511 16.044 24.7394 16.2323 24.7394 16.4789C24.7394 16.7237 24.5511 16.9137 24.3046 16.9137H19.956C19.7112 16.9137 19.5211 16.7237 19.5211 16.4789C19.5211 16.2323 19.7112 16.044 19.956 16.044ZM19.956 24.7394V33H33V24.7394H19.956ZM20.8257 25.6091H21.6629C21.5841 25.7649 21.5225 25.9139 21.4763 26.0269C21.4215 26.1587 21.3616 26.246 21.3838 26.2221C21.4078 26.1981 21.3308 26.2563 21.2126 26.3077C21.1082 26.3487 20.9695 26.4052 20.8257 26.4669V25.6091ZM23 25.6091H29.9577C30.2898 25.6091 30.3652 25.7221 30.4953 25.955C30.5603 26.0731 30.6186 26.2135 30.6768 26.3607C30.7384 26.508 30.788 26.6603 30.9456 26.8247H30.9473C31.1031 26.989 31.2606 27.0455 31.4095 27.1089C31.5585 27.1705 31.7057 27.2253 31.8307 27.2818C31.9522 27.34 32.043 27.4016 32.0858 27.4444C32.1252 27.489 32.1303 27.4924 32.1303 27.5506V30.1905C32.1303 30.247 32.1252 30.2505 32.0858 30.295C32.043 30.3395 31.9522 30.4011 31.8307 30.4576C31.7057 30.5141 31.5585 30.5689 31.4095 30.6305C31.2606 30.6956 31.1031 30.7521 30.9473 30.9147H30.9456C30.788 31.0791 30.7384 31.2332 30.6768 31.3787C30.6186 31.5259 30.5603 31.668 30.4953 31.7845C30.3652 32.0173 30.2898 32.1303 29.9577 32.1303H23C22.6679 32.1303 22.5925 32.0173 22.4624 31.7845C22.3974 31.668 22.3392 31.5259 22.2792 31.3787C22.2176 31.2332 22.1697 31.0791 22.0104 30.9147C21.8529 30.7521 21.6971 30.6956 21.5482 30.6305C21.3992 30.5689 21.2503 30.5141 21.127 30.4576C21.0038 30.4011 20.9147 30.3395 20.8719 30.295C20.8291 30.2505 20.8257 30.247 20.8257 30.1905V27.5506C20.8257 27.5215 20.8274 27.5061 20.8326 27.4924C20.8394 27.4787 20.8514 27.4667 20.8719 27.4444C20.9147 27.4016 21.0038 27.34 21.127 27.2818C21.2503 27.2253 21.3992 27.1705 21.5482 27.1089C21.6971 27.0455 21.8529 26.989 22.0104 26.8247C22.1697 26.6603 22.2176 26.508 22.2792 26.3607C22.3392 26.2135 22.3974 26.0731 22.4624 25.955C22.5925 25.7221 22.6679 25.6091 23 25.6091ZM31.2931 25.6091H32.1303V26.4669C31.9882 26.4052 31.8478 26.3487 31.7451 26.3077C31.6252 26.2563 31.5516 26.1998 31.5739 26.2221L31.5722 26.2203C31.5944 26.2443 31.5362 26.1587 31.4814 26.0269C31.4352 25.9139 31.3736 25.7649 31.2931 25.6091ZM26.4789 26.4789C25.2548 26.4789 24.3046 27.5814 24.3046 28.8706C24.3046 30.1597 25.2548 31.2623 26.4789 31.2623C27.703 31.2623 28.6531 30.1597 28.6531 28.8706C28.6531 27.5814 27.703 26.4789 26.4789 26.4789ZM26.4789 27.3486C27.1757 27.3486 27.7834 27.9991 27.7834 28.8706C27.7834 29.742 27.1757 30.3926 26.4789 30.3926C25.7821 30.3926 25.1743 29.742 25.1743 28.8706C25.1743 27.9991 25.7821 27.3486 26.4789 27.3486ZM22.7826 28.2183C22.423 28.2183 22.1303 28.5093 22.1303 28.8706C22.1303 29.2301 22.423 29.5229 22.7826 29.5229C23.1421 29.5229 23.4349 29.2301 23.4349 28.8706C23.4349 28.5093 23.1421 28.2183 22.7826 28.2183ZM30.1751 28.2183C29.8139 28.2183 29.5229 28.5093 29.5229 28.8706C29.5229 29.2301 29.8139 29.5229 30.1751 29.5229C30.5347 29.5229 30.8274 29.2301 30.8274 28.8706C30.8274 28.5093 30.5347 28.2183 30.1751 28.2183ZM20.8257 31.2726C20.9695 31.3342 21.1082 31.3907 21.2126 31.4335C21.3308 31.4848 21.4078 31.5413 21.3838 31.5191C21.3616 31.4934 21.4215 31.5807 21.4763 31.7125C21.5225 31.8273 21.5841 31.9745 21.6629 32.1303H20.8257V31.2726ZM32.1303 31.2726V32.1303H31.2931C31.3736 31.9745 31.4352 31.8273 31.4814 31.7125C31.5362 31.5807 31.5961 31.4934 31.5739 31.5191C31.5516 31.5413 31.6252 31.4848 31.7451 31.4335C31.8478 31.3907 31.9882 31.3342 32.1303 31.2726Z" fill="#0074FF"/>
</svg>
