<svg width="40" height="40" viewBox="0 0 40 40" fill="none" xmlns="http://www.w3.org/2000/svg">
<path d="M40 20C40 8.95431 31.0457 0 20 0V0C8.95431 0 0 8.95431 0 20V20C0 31.0457 8.95431 40 20 40V40C31.0457 40 40 31.0457 40 20V20Z" fill="white"/>
<path d="M23.2725 26.3821C22.9254 26.7292 22.3658 26.7292 22.0187 26.3821L16.1325 20.4959C15.8562 20.2196 15.8562 19.7734 16.1325 19.4971L22.0187 13.6109C22.3658 13.2638 22.9254 13.2638 23.2725 13.6109C23.6196 13.958 23.6196 14.5176 23.2725 14.8646L18.1442 20.0001L23.2796 25.1355C23.6196 25.4755 23.6196 26.0421 23.2725 26.3821Z" fill="#107DEF"/>
<path d="M20 39C30.4934 39 39 30.4934 39 20H41C41 31.598 31.598 41 20 41V39ZM1 20C1 30.4934 9.50659 39 20 39V41C8.40202 41 -1 31.598 -1 20H1ZM20 1C9.50659 1 1 9.50659 1 20H-1C-1 8.40202 8.40202 -1 20 -1V1ZM20 -1C31.598 -1 41 8.40202 41 20H39C39 9.50659 30.4934 1 20 1V-1Z" fill="#6BB3FE"/>
</svg>
