<svg width="24" height="24" viewBox="0 0 24 24" fill="none" xmlns="http://www.w3.org/2000/svg">
<path d="M2.09815e-06 12C9.39372e-07 18.6274 5.37258 24 12 24C18.6274 24 24 18.6274 24 12C24 5.37259 18.6274 3.25692e-06 12 2.09815e-06C5.37259 9.39372e-07 3.25692e-06 5.37258 2.09815e-06 12Z" fill="white"/>
<path d="M10.6773 7.86998C10.9054 7.63497 11.2731 7.63497 11.5012 7.86998L15.3695 11.8556C15.551 12.0426 15.551 12.3448 15.3695 12.5319L11.5012 16.5175C11.2731 16.7525 10.9054 16.7525 10.6773 16.5175C10.4492 16.2825 10.4492 15.9036 10.6773 15.6685L14.0475 12.1913L10.6726 8.71411C10.4492 8.48389 10.4492 8.1002 10.6773 7.86998Z" fill="#107DEF"/>
<path d="M12 1C5.92487 1 1 5.92487 1 12L-0.999998 12C-0.999997 4.8203 4.8203 -0.999999 12 -0.999998L12 1ZM23 12C23 5.92487 18.0751 1 12 1L12 -0.999998C19.1797 -0.999997 25 4.8203 25 12L23 12ZM12 23C18.0751 23 23 18.0751 23 12L25 12C25 19.1797 19.1797 25 12 25L12 23ZM12 25C4.8203 25 -0.999999 19.1797 -0.999998 12L1 12C1 18.0751 5.92487 23 12 23L12 25Z" fill="#107DEF"/>
</svg>
