<svg width="40" height="40" viewBox="0 0 40 40" fill="none" xmlns="http://www.w3.org/2000/svg">
<g opacity="0.5">
<path d="M16.7275 26.3821C17.0746 26.7292 17.6342 26.7292 17.9813 26.3821L23.8675 20.4959C24.1438 20.2196 24.1438 19.7734 23.8675 19.4971L17.9813 13.6109C17.6342 13.2638 17.0746 13.2638 16.7275 13.6109C16.3804 13.958 16.3804 14.5176 16.7275 14.8646L21.8558 20.0001L16.7204 25.1355C16.3804 25.4755 16.3804 26.0421 16.7275 26.3821Z" fill="#107DEF"/>
<path d="M20 38.5C9.78273 38.5 1.5 30.2173 1.5 20H-1.5C-1.5 31.8741 8.12588 41.5 20 41.5V38.5ZM38.5 20C38.5 30.2173 30.2173 38.5 20 38.5V41.5C31.8741 41.5 41.5 31.8741 41.5 20H38.5ZM20 1.5C30.2173 1.5 38.5 9.78273 38.5 20H41.5C41.5 8.12588 31.8741 -1.5 20 -1.5V1.5ZM20 -1.5C8.12588 -1.5 -1.5 8.12588 -1.5 20H1.5C1.5 9.78273 9.78273 1.5 20 1.5V-1.5Z" fill="#107DEF"/>
</g>
</svg>
