<svg width="24" height="24" viewBox="0 0 24 24" fill="none" xmlns="http://www.w3.org/2000/svg">
<path d="M24 12C24 5.37258 18.6274 0 12 0C5.37258 0 0 5.37258 0 12C0 18.6274 5.37258 24 12 24C18.6274 24 24 18.6274 24 12Z" fill="white"/>
<path d="M14.3227 16.13C14.0946 16.365 13.7269 16.365 13.4988 16.13L9.63054 12.1444C9.449 11.9574 9.449 11.6552 9.63054 11.4681L13.4988 7.48253C13.7269 7.24752 14.0946 7.24752 14.3227 7.48253C14.5508 7.71755 14.5508 8.09644 14.3227 8.33145L10.9525 11.8087L14.3274 15.2859C14.5508 15.5161 14.5508 15.8998 14.3227 16.13Z" fill="#107DEF"/>
<path d="M12 23C18.0751 23 23 18.0751 23 12H25C25 19.1797 19.1797 25 12 25V23ZM1 12C1 18.0751 5.92487 23 12 23V25C4.8203 25 -1 19.1797 -1 12H1ZM12 1C5.92487 1 1 5.92487 1 12H-1C-1 4.8203 4.8203 -1 12 -1V1ZM12 -1C19.1797 -1 25 4.8203 25 12H23C23 5.92487 18.0751 1 12 1V-1Z" fill="#107DEF"/>
</svg>
