<svg width="40" height="40" viewBox="0 0 40 40" fill="none" xmlns="http://www.w3.org/2000/svg">
<path d="M23.2725 26.3821C22.9254 26.7292 22.3658 26.7292 22.0187 26.3821L16.1325 20.4959C15.8562 20.2196 15.8562 19.7734 16.1325 19.4971L22.0187 13.6109C22.3658 13.2638 22.9254 13.2638 23.2725 13.6109C23.6196 13.958 23.6196 14.5176 23.2725 14.8646L18.1442 20.0001L23.2796 25.1355C23.6196 25.4755 23.6196 26.0421 23.2725 26.3821Z" fill="#107DEF"/>
<path d="M20 38.5C30.2173 38.5 38.5 30.2173 38.5 20H41.5C41.5 31.8741 31.8741 41.5 20 41.5V38.5ZM1.5 20C1.5 30.2173 9.78273 38.5 20 38.5V41.5C8.12588 41.5 -1.5 31.8741 -1.5 20H1.5ZM20 1.5C9.78273 1.5 1.5 9.78273 1.5 20H-1.5C-1.5 8.12588 8.12588 -1.5 20 -1.5V1.5ZM20 -1.5C31.8741 -1.5 41.5 8.12588 41.5 20H38.5C38.5 9.78273 30.2173 1.5 20 1.5V-1.5Z" fill="#107DEF"/>
</svg>
