<svg width="40" height="40" viewBox="0 0 40 40" fill="none" xmlns="http://www.w3.org/2000/svg">
<path d="M0 20C0 8.95431 8.95431 0 20 0V0C31.0457 0 40 8.95431 40 20V20C40 31.0457 31.0457 40 20 40V40C8.95431 40 0 31.0457 0 20V20Z" fill="white"/>
<path d="M16.7275 26.3821C17.0746 26.7292 17.6342 26.7292 17.9813 26.3821L23.8675 20.4959C24.1438 20.2196 24.1438 19.7734 23.8675 19.4971L17.9813 13.6109C17.6342 13.2638 17.0746 13.2638 16.7275 13.6109C16.3804 13.958 16.3804 14.5176 16.7275 14.8646L21.8558 20.0001L16.7204 25.1355C16.3804 25.4755 16.3804 26.0421 16.7275 26.3821Z" fill="#107DEF"/>
<path d="M20 39C9.50659 39 1 30.4934 1 20H-1C-1 31.598 8.40202 41 20 41V39ZM39 20C39 30.4934 30.4934 39 20 39V41C31.598 41 41 31.598 41 20H39ZM20 1C30.4934 1 39 9.50659 39 20H41C41 8.40202 31.598 -1 20 -1V1ZM20 -1C8.40202 -1 -1 8.40202 -1 20H1C1 9.50659 9.50659 1 20 1V-1Z" fill="#107DEF"/>
</svg>
