<svg width="136" height="44" viewBox="0 0 136 44" fill="none" xmlns="http://www.w3.org/2000/svg">
<path d="M60.2667 16.0657C60.4774 16.2788 60.7294 16.4465 61.0074 16.5584C61.2853 16.6703 61.5832 16.7241 61.8827 16.7164C62.182 16.724 62.4797 16.6701 62.7574 16.5582C63.0351 16.4463 63.287 16.2787 63.4974 16.0657C63.7082 15.853 63.8745 15.6004 63.9867 15.3228C64.0989 15.0451 64.1546 14.7479 64.1507 14.4484C64.1581 14.1489 64.1039 13.851 63.9916 13.5733C63.8792 13.2956 63.711 13.0438 63.4974 12.8337C63.2912 12.6131 63.0409 12.4384 62.7627 12.321C62.4845 12.2036 62.1846 12.1462 61.8827 12.1524C61.5806 12.146 61.2805 12.2033 61.0021 12.3207C60.7236 12.4381 60.4731 12.6129 60.2667 12.8337C60.0533 13.0439 59.8853 13.2957 59.7732 13.5734C59.661 13.8512 59.6071 14.149 59.6147 14.4484C59.6106 14.7478 59.6661 15.045 59.778 15.3227C59.89 15.6003 60.0561 15.8529 60.2667 16.0657Z" fill="#7524F9"/>
<path d="M59.8666 18.267C59.828 18.3089 59.7982 18.3581 59.7789 18.4117C59.7597 18.4653 59.7514 18.5222 59.7546 18.579V31.619C59.7514 31.6759 59.7596 31.7328 59.7788 31.7864C59.7981 31.84 59.8279 31.8892 59.8666 31.931C59.9082 31.9701 59.9573 32.0002 60.011 32.0197C60.0646 32.0392 60.1216 32.0476 60.1786 32.0444H63.5799C63.6369 32.0476 63.6939 32.0392 63.7476 32.0197C63.8012 32.0002 63.8503 31.9701 63.8919 31.931C63.9311 31.8895 63.9613 31.8404 63.9808 31.7867C64.0003 31.7331 64.0086 31.676 64.0053 31.619V18.579C64.0085 18.522 64.0001 18.465 63.9806 18.4114C63.9611 18.3578 63.931 18.3086 63.8919 18.267C63.8501 18.2284 63.8009 18.1986 63.7473 18.1794C63.6937 18.1601 63.6368 18.1518 63.5799 18.155H60.1813C60.1244 18.1518 60.0675 18.1601 60.0139 18.1794C59.9603 18.1986 59.9111 18.2284 59.8693 18.267" fill="#7524F9"/>
<path fill-rule="evenodd" clip-rule="evenodd" d="M95.936 22.1138C96.4781 21.6931 97.1488 21.4727 97.8347 21.4898C98.5035 21.4728 99.1565 21.694 99.6774 22.1138C100.188 22.5102 100.509 23.0955 100.641 23.8698H94.9147C95.0667 23.0964 95.4071 22.5111 95.936 22.1138ZM104.213 26.1671C104.346 25.8835 104.412 25.4302 104.411 24.8071C104.423 23.602 104.141 22.412 103.589 21.3404C103.06 20.3029 102.256 19.4304 101.265 18.8178C100.224 18.1846 99.0248 17.8609 97.8067 17.8844C96.5409 17.8691 95.2954 18.2027 94.2067 18.8484C93.1391 19.4622 92.2573 20.3532 91.6547 21.4271C91.0465 22.5392 90.7343 23.789 90.748 25.0564C90.7336 26.3269 91.0556 27.5786 91.6814 28.6844C92.2978 29.774 93.1988 30.6754 94.288 31.2924C95.458 31.9449 96.7792 32.2779 98.1187 32.2578C99.0781 32.2668 100.03 32.0856 100.919 31.7244C101.798 31.3523 102.598 30.813 103.272 30.1364C103.322 30.094 103.362 30.042 103.392 29.9836C103.421 29.9253 103.438 29.8616 103.443 29.7964C103.444 29.7439 103.434 29.6917 103.415 29.6429C103.395 29.5941 103.366 29.5497 103.329 29.5124L101.863 28.0964C101.785 28.0012 101.673 27.9399 101.551 27.9258C101.436 27.9256 101.325 27.9657 101.237 28.0391C100.816 28.3172 100.358 28.5365 99.8774 28.6911C99.4425 28.8071 98.9941 28.8645 98.544 28.8618C97.6 28.8618 96.816 28.6729 96.192 28.2951C95.5826 27.8909 95.1475 27.2721 94.9734 26.5618H103.392C103.808 26.5618 104.083 26.4284 104.215 26.1618" fill="#7524F9"/>
<path fill-rule="evenodd" clip-rule="evenodd" d="M112.565 21.4897C111.879 21.4729 111.209 21.6933 110.667 22.1137C110.133 22.5101 109.793 23.0955 109.647 23.8697H115.372C115.24 23.0964 114.918 22.511 114.408 22.1137C113.887 21.6939 113.234 21.4728 112.565 21.4897ZM119.143 24.807C119.143 25.4292 119.076 25.8826 118.944 26.167C118.811 26.4337 118.537 26.567 118.123 26.567H109.704C109.877 27.2773 110.312 27.8962 110.921 28.3004C111.544 28.6773 112.328 28.8661 113.275 28.867C113.725 28.8699 114.173 28.8125 114.608 28.6964C115.089 28.5415 115.547 28.3221 115.969 28.0444C116.057 27.9708 116.167 27.9306 116.281 27.931C116.404 27.9449 116.516 28.0062 116.593 28.1017L118.06 29.5177C118.097 29.5548 118.127 29.5991 118.146 29.648C118.166 29.6968 118.175 29.7491 118.173 29.8017C118.169 29.8669 118.152 29.9307 118.123 29.9891C118.093 30.0475 118.053 30.0994 118.003 30.1417C117.33 30.8157 116.533 31.3532 115.656 31.7244C114.767 32.0853 113.815 32.2666 112.856 32.2577C111.518 32.2776 110.197 31.9451 109.028 31.2937C107.939 30.676 107.038 29.7747 106.421 28.6857C105.796 27.5796 105.474 26.3281 105.488 25.0577C105.474 23.7902 105.786 22.5405 106.395 21.4284C106.994 20.3576 107.871 19.4683 108.933 18.8537C110.022 18.2079 111.268 17.8744 112.533 17.8897C113.751 17.866 114.951 18.1898 115.992 18.823C116.983 19.4357 117.786 20.3082 118.316 21.3457C118.868 22.417 119.151 23.6071 119.139 24.8124" fill="#7524F9"/>
<path fill-rule="evenodd" clip-rule="evenodd" d="M129.816 27.471C129.229 28.0764 128.483 28.3786 127.576 28.3777C126.651 28.3777 125.895 28.0755 125.309 27.471C124.743 26.8657 124.459 26.0813 124.459 25.1177C124.459 24.1737 124.742 23.3804 125.309 22.7377C125.595 22.4223 125.945 22.1727 126.336 22.0063C126.728 21.8398 127.151 21.7605 127.576 21.7737C127.994 21.7612 128.41 21.8379 128.797 21.9988C129.183 22.1598 129.53 22.4012 129.816 22.707C130.419 23.3293 130.722 24.1324 130.723 25.1164C130.723 26.0808 130.42 26.8653 129.816 27.4697V27.471ZM131.516 18.8524C130.489 18.2079 129.299 17.8732 128.087 17.8884C126.462 17.8884 125.128 18.5497 124.087 19.8724L123.944 18.5977C123.907 18.3142 123.765 18.1724 123.519 18.1724H120.631C120.574 18.1692 120.517 18.1775 120.463 18.197C120.409 18.2165 120.36 18.2467 120.319 18.2857C120.28 18.3274 120.25 18.3766 120.231 18.4302C120.211 18.4839 120.203 18.5408 120.207 18.5977V37.023C120.203 37.0801 120.212 37.1372 120.231 37.191C120.25 37.2448 120.28 37.2942 120.319 37.3364C120.36 37.3752 120.409 37.4052 120.463 37.4246C120.517 37.4441 120.574 37.4526 120.631 37.4497H124.032C124.089 37.4528 124.146 37.4444 124.199 37.4249C124.253 37.4055 124.302 37.3753 124.344 37.3364C124.383 37.2945 124.413 37.2452 124.433 37.1913C124.452 37.1375 124.46 37.0802 124.457 37.023V30.8164C125.384 31.7773 126.594 32.2577 128.087 32.2577C129.295 32.2743 130.483 31.9509 131.516 31.3244C132.539 30.6994 133.372 29.8074 133.927 28.7444C134.515 27.6363 134.817 26.3988 134.805 25.1444C134.821 23.8716 134.519 22.615 133.927 21.4884C133.385 20.4019 132.55 19.4888 131.516 18.8524Z" fill="#7524F9"/>
<path d="M74.288 18.155C74.3449 18.1519 74.4018 18.1602 74.4554 18.1794C74.509 18.1986 74.5582 18.2284 74.6001 18.2671C74.6391 18.3087 74.6693 18.3578 74.6887 18.4114C74.7082 18.4651 74.7166 18.5221 74.7134 18.5791V21.159C74.7167 21.2158 74.7084 21.2727 74.6889 21.3261C74.6694 21.3796 74.6392 21.4284 74.6001 21.4697C74.5587 21.5092 74.5096 21.5397 74.456 21.5595C74.4023 21.5792 74.3451 21.5877 74.288 21.5844H72.0214V31.6191C72.0245 31.6761 72.0159 31.7332 71.9962 31.7869C71.9765 31.8405 71.946 31.8896 71.9067 31.931C71.8651 31.9701 71.816 32.0003 71.7623 32.0197C71.7087 32.0392 71.6517 32.0476 71.5947 32.0444H68.1934C68.1364 32.0476 68.0794 32.0392 68.0257 32.0197C67.9721 32.0003 67.923 31.9701 67.8814 31.931C67.8422 31.8895 67.812 31.8404 67.7925 31.7868C67.773 31.7331 67.7647 31.676 67.768 31.6191V21.5911H65.5014C65.4443 21.5943 65.3871 21.5858 65.3335 21.5661C65.2798 21.5464 65.2308 21.5159 65.1894 21.4764C65.1505 21.4349 65.1204 21.386 65.101 21.3326C65.0815 21.2792 65.073 21.2225 65.076 21.1657V18.5857C65.0731 18.5288 65.0817 18.4718 65.1011 18.4182C65.1206 18.3647 65.1506 18.3155 65.1894 18.2737C65.2312 18.2351 65.2804 18.2053 65.334 18.1861C65.3876 18.1668 65.4445 18.1586 65.5014 18.1617H67.768V14.3337C67.7648 14.2767 67.7732 14.2197 67.7927 14.1661C67.8122 14.1125 67.8423 14.0633 67.8814 14.0217C67.9231 13.9829 67.9722 13.9529 68.0259 13.9336C68.0795 13.9144 68.1365 13.9062 68.1934 13.9097H71.6C71.6569 13.9062 71.7139 13.9144 71.7676 13.9336C71.8212 13.9529 71.8704 13.9829 71.9121 14.0217C71.9513 14.0632 71.9817 14.1123 72.0014 14.1659C72.0212 14.2196 72.0298 14.2767 72.0267 14.3337V18.1617L74.288 18.155Z" fill="#7524F9"/>
<path fill-rule="evenodd" clip-rule="evenodd" d="M51.4441 28.1604C52.3134 28.1604 53.0032 27.9622 53.5134 27.5657C54.0236 27.1693 54.2787 26.5737 54.2787 25.7791C54.2787 25.0039 54.0236 24.4373 53.5134 24.0791C53.0023 23.7004 52.3125 23.5115 51.4441 23.5124H48.2667V28.1604H51.4441ZM53.0881 17.8937C53.0881 16.6848 52.3414 16.0799 50.8481 16.0791H48.2667V19.8777H50.8454C51.5441 19.8777 52.0934 19.7177 52.4894 19.3964C52.8867 19.0551 53.0854 18.5542 53.0854 17.8937H53.0881ZM54.7854 21.4377C55.848 21.7247 56.7975 22.3294 57.5067 23.1711C58.28 24.0341 58.6957 25.1592 58.6694 26.3177C58.6694 28.2271 58.0552 29.6635 56.8267 30.6271C55.6169 31.5711 53.7654 32.0435 51.2721 32.0444H44.3001C44.2431 32.0476 44.1861 32.0392 44.1324 32.0197C44.0788 32.0003 44.0297 31.9701 43.9881 31.9311C43.9491 31.8894 43.9191 31.8403 43.8999 31.7866C43.8806 31.733 43.8725 31.6759 43.8761 31.6191V12.6271C43.8726 12.5702 43.8807 12.5132 43.9 12.4595C43.9192 12.4059 43.9492 12.3567 43.9881 12.3151C44.0297 12.276 44.0788 12.2458 44.1324 12.2264C44.1861 12.2069 44.2431 12.1985 44.3001 12.2017H51.2454C52.4898 12.2017 53.5565 12.4284 54.4454 12.8817C55.2931 13.2806 56.0034 13.9218 56.4867 14.7244C56.9643 15.5096 57.2115 16.4134 57.2001 17.3324C57.2205 18.2432 56.9739 19.1401 56.4907 19.9124C56.0374 20.6484 55.4703 21.1586 54.7894 21.4431" fill="#7524F9"/>
<path d="M92.304 31.8991C92.3049 31.807 92.2749 31.7174 92.2187 31.6444L84.3267 21.0044L91.944 12.8044C92.0215 12.7403 92.0719 12.6494 92.0853 12.5498C92.0858 12.5131 92.0752 12.4771 92.055 12.4464C92.0348 12.4158 92.0059 12.3919 91.972 12.3778C91.937 12.3476 91.8963 12.3246 91.8524 12.3102C91.8085 12.2958 91.7621 12.2902 91.716 12.2938H87.8667C87.7746 12.2933 87.6836 12.3134 87.6003 12.3526C87.517 12.3918 87.4436 12.4492 87.3853 12.5204L80.0813 20.4378V12.7204C80.0845 12.6634 80.0759 12.6063 80.0562 12.5526C80.0365 12.499 80.006 12.4499 79.9667 12.4084C79.9255 12.3691 79.8766 12.3387 79.8232 12.319C79.7698 12.2993 79.7129 12.2907 79.656 12.2938H76.2493C76.1923 12.2905 76.1351 12.299 76.0814 12.3187C76.0278 12.3384 75.9787 12.369 75.9373 12.4084C75.8982 12.45 75.8679 12.4991 75.8484 12.5527C75.8289 12.6064 75.8206 12.6635 75.824 12.7204V31.7244C75.8206 31.7814 75.8288 31.8385 75.8483 31.8922C75.8678 31.9459 75.8981 31.9949 75.9373 32.0364C75.9788 32.0757 76.0279 32.106 76.0816 32.1255C76.1353 32.145 76.1923 32.1532 76.2493 32.1498H79.6507C79.7075 32.1531 79.7643 32.1448 79.8178 32.1253C79.8712 32.1058 79.9201 32.0756 79.9613 32.0364C80.0008 31.9951 80.0314 31.946 80.0511 31.8923C80.0708 31.8387 80.0793 31.7815 80.076 31.7244V25.5911L81.748 23.7778L87.7973 31.8938C87.8524 31.9772 87.9285 32.0447 88.0179 32.0894C88.1073 32.1341 88.2069 32.1544 88.3067 32.1484H91.964C92.1907 32.1484 92.304 32.0644 92.304 31.8938" fill="#7524F9"/>
<path fill-rule="evenodd" clip-rule="evenodd" d="M35.3706 13.6164V15.5564C35.3707 15.7437 35.3214 15.9277 35.2278 16.0899C35.1341 16.2521 34.9995 16.3868 34.8373 16.4804L28.5866 20.0884L34.1693 23.3017C34.5344 23.5125 34.8375 23.8157 35.0481 24.1809C35.2588 24.546 35.3696 24.9602 35.3693 25.3817V30.5511C35.3698 30.9728 35.2591 31.3873 35.0485 31.7527C34.8378 32.1181 34.5345 32.4215 34.1693 32.6324L19.4826 41.0577C19.1178 41.2684 18.7039 41.3793 18.2826 41.3793C17.8613 41.3793 17.4475 41.2684 17.0826 41.0577L12.2826 38.2831C12.2015 38.2363 12.1341 38.1689 12.0873 38.0878C12.0404 38.0067 12.0157 37.9147 12.0157 37.8211C12.0157 37.7274 12.0404 37.6354 12.0873 37.5543C12.1341 37.4732 12.2015 37.4059 12.2826 37.3591L28.1493 28.2271C28.19 28.2037 28.2238 28.17 28.2474 28.1294C28.2709 28.0888 28.2833 28.0427 28.2833 27.9957C28.2833 27.9488 28.2709 27.9027 28.2474 27.8621C28.2238 27.8214 28.19 27.7878 28.1493 27.7644L22.2586 24.3617C22.0965 24.2681 21.9125 24.2188 21.7253 24.2188C21.538 24.2188 21.3541 24.2681 21.192 24.3617L5.06662 33.6444C4.945 33.7146 4.80705 33.7516 4.66662 33.7516C4.52619 33.7516 4.38823 33.7146 4.26662 33.6444L2.44262 32.5991C2.07547 32.389 1.77037 32.0856 1.55823 31.7196C1.34609 31.3536 1.23445 30.9381 1.23462 30.5151V28.3991C1.23453 28.2585 1.27145 28.1205 1.34167 27.9988C1.41189 27.8771 1.51293 27.776 1.63462 27.7057L24.7466 14.4297C24.7873 14.4064 24.8212 14.3727 24.8447 14.3321C24.8682 14.2915 24.8806 14.2453 24.8806 14.1984C24.8806 14.1515 24.8682 14.1053 24.8447 14.0647C24.8212 14.0241 24.7873 13.9904 24.7466 13.9671L18.8466 10.5537C18.6845 10.4601 18.5005 10.4108 18.3133 10.4108C18.126 10.4108 17.9421 10.4601 17.78 10.5537L2.04662 19.6071C1.96548 19.6539 1.87344 19.6786 1.77976 19.6785C1.68607 19.6785 1.59405 19.6538 1.51295 19.6069C1.43184 19.56 1.36453 19.4925 1.31778 19.4113C1.27102 19.3302 1.24648 19.2381 1.24662 19.1444V13.5911C1.24679 13.1686 1.35845 12.7537 1.57032 12.3883C1.7822 12.0228 2.08678 11.7198 2.45329 11.5097L17.132 3.08573C17.496 2.87632 17.9086 2.76611 18.3286 2.76611C18.7486 2.76611 19.1612 2.87632 19.5253 3.08573L34.176 11.5351C34.5402 11.7466 34.8424 12.0503 35.0521 12.4157C35.2618 12.781 35.3717 13.1951 35.3706 13.6164Z" fill="#7524F9"/>
</svg>
