<svg width="20" height="20" viewBox="0 0 20 20" fill="none" xmlns="http://www.w3.org/2000/svg">
<path d="M10 0C15.5234 0 20 4.47656 20 10C20 15.5234 15.5234 20 10 20C4.47656 20 0 15.5234 0 10C0 4.47656 4.47656 0 10 0Z" fill="#0052FF"/>
<path d="M10.0147 13.5294C8.06217 13.5294 6.47892 11.951 6.47892 9.99999C6.47892 8.04901 8.06217 6.47057 10.0147 6.47057C11.7649 6.47057 13.2185 7.74508 13.4975 9.41175H17.0588C16.7583 5.78822 13.7194 2.94116 10.0128 2.94116C6.10766 2.94116 2.94116 6.10195 2.94116 9.99999C2.94116 13.898 6.10766 17.0588 10.0128 17.0588C13.7194 17.0588 16.7583 14.2118 17.0588 10.5882H13.4955C13.2146 12.2549 11.7649 13.5294 10.0147 13.5294Z" fill="white"/>
</svg>
