<svg width="366" height="135" viewBox="0 0 366 135" fill="none" xmlns="http://www.w3.org/2000/svg">
<path d="M0.5 5C0.5 2.51472 2.51472 0.5 5 0.5H361C363.485 0.5 365.5 2.51472 365.5 5V134.5H0.5V5Z" fill="#2C80FF" stroke="#1890FF"/>
<path d="M107.278 102V90.3636H111.54C112.366 90.3636 113.049 90.5 113.591 90.7727C114.133 91.0417 114.538 91.4072 114.807 91.8693C115.076 92.3277 115.21 92.8447 115.21 93.4205C115.21 93.9053 115.121 94.3144 114.943 94.6477C114.765 94.9773 114.527 95.2424 114.227 95.4432C113.932 95.6402 113.606 95.7841 113.25 95.875V95.9886C113.636 96.0076 114.013 96.1326 114.381 96.3636C114.752 96.5909 115.059 96.9148 115.301 97.3352C115.544 97.7557 115.665 98.267 115.665 98.8693C115.665 99.464 115.525 99.9981 115.244 100.472C114.968 100.941 114.54 101.314 113.96 101.591C113.381 101.864 112.64 102 111.739 102H107.278ZM109.034 100.494H111.568C112.409 100.494 113.011 100.331 113.375 100.006C113.739 99.6799 113.92 99.2727 113.92 98.7841C113.92 98.4167 113.828 98.0795 113.642 97.7727C113.456 97.4659 113.191 97.2216 112.847 97.0398C112.506 96.858 112.1 96.767 111.631 96.767H109.034V100.494ZM109.034 95.3977H111.386C111.78 95.3977 112.134 95.322 112.449 95.1705C112.767 95.0189 113.019 94.8068 113.205 94.5341C113.394 94.2576 113.489 93.9318 113.489 93.5568C113.489 93.0758 113.32 92.6723 112.983 92.3466C112.646 92.0208 112.129 91.858 111.432 91.858H109.034V95.3977ZM123.139 98.3807V93.2727H124.844V102H123.173V100.489H123.082C122.882 100.955 122.56 101.343 122.116 101.653C121.677 101.96 121.13 102.114 120.474 102.114C119.914 102.114 119.418 101.991 118.986 101.744C118.558 101.494 118.221 101.125 117.974 100.636C117.732 100.148 117.611 99.5436 117.611 98.8239V93.2727H119.31V98.6193C119.31 99.214 119.474 99.6875 119.804 100.04C120.134 100.392 120.562 100.568 121.088 100.568C121.406 100.568 121.723 100.489 122.037 100.33C122.355 100.17 122.618 99.9299 122.827 99.608C123.039 99.286 123.143 98.8769 123.139 98.3807ZM128.2 105.273C127.946 105.273 127.715 105.252 127.507 105.21C127.299 105.172 127.143 105.131 127.041 105.085L127.45 103.693C127.761 103.777 128.037 103.813 128.28 103.801C128.522 103.79 128.736 103.699 128.922 103.528C129.111 103.358 129.278 103.08 129.422 102.693L129.632 102.114L126.439 93.2727H128.257L130.467 100.045H130.558L132.768 93.2727H134.592L130.996 103.165C130.829 103.619 130.617 104.004 130.359 104.318C130.102 104.636 129.795 104.875 129.439 105.034C129.083 105.193 128.67 105.273 128.2 105.273ZM144.099 102.176C143.255 102.176 142.527 101.985 141.918 101.602C141.312 101.216 140.846 100.684 140.52 100.006C140.194 99.3277 140.031 98.5511 140.031 97.6761C140.031 96.7898 140.198 96.0076 140.531 95.3295C140.865 94.6477 141.334 94.1155 141.94 93.733C142.546 93.3504 143.26 93.1591 144.082 93.1591C144.745 93.1591 145.336 93.2822 145.855 93.5284C146.374 93.7708 146.793 94.1117 147.111 94.5511C147.433 94.9905 147.624 95.5038 147.685 96.0909H146.031C145.94 95.6818 145.732 95.3295 145.406 95.0341C145.084 94.7386 144.652 94.5909 144.111 94.5909C143.637 94.5909 143.223 94.7159 142.866 94.9659C142.514 95.2121 142.24 95.5644 142.043 96.0227C141.846 96.4773 141.747 97.0152 141.747 97.6364C141.747 98.2727 141.844 98.822 142.037 99.2841C142.23 99.7462 142.503 100.104 142.855 100.358C143.211 100.612 143.63 100.739 144.111 100.739C144.433 100.739 144.724 100.68 144.986 100.562C145.251 100.441 145.473 100.269 145.651 100.045C145.832 99.822 145.959 99.553 146.031 99.2386H147.685C147.624 99.803 147.44 100.307 147.134 100.75C146.827 101.193 146.416 101.542 145.901 101.795C145.389 102.049 144.789 102.176 144.099 102.176ZM149.501 102V93.2727H151.143V94.6591H151.234C151.393 94.1894 151.674 93.8201 152.075 93.5511C152.481 93.2784 152.939 93.142 153.45 93.142C153.556 93.142 153.681 93.1458 153.825 93.1534C153.973 93.161 154.089 93.1705 154.172 93.1818V94.8068C154.104 94.7879 153.982 94.767 153.808 94.7443C153.634 94.7178 153.46 94.7045 153.286 94.7045C152.884 94.7045 152.526 94.7898 152.212 94.9602C151.901 95.1269 151.655 95.3598 151.473 95.6591C151.291 95.9545 151.2 96.2917 151.2 96.6705V102H149.501ZM156.982 105.273C156.728 105.273 156.497 105.252 156.288 105.21C156.08 105.172 155.925 105.131 155.822 105.085L156.232 103.693C156.542 103.777 156.819 103.813 157.061 103.801C157.304 103.79 157.518 103.699 157.703 103.528C157.893 103.358 158.059 103.08 158.203 102.693L158.413 102.114L155.22 93.2727H157.038L159.249 100.045H159.339L161.55 93.2727H163.374L159.777 103.165C159.61 103.619 159.398 104.004 159.141 104.318C158.883 104.636 158.576 104.875 158.22 105.034C157.864 105.193 157.451 105.273 156.982 105.273ZM164.97 105.273V93.2727H166.629V94.6875H166.771C166.87 94.5057 167.012 94.2955 167.197 94.0568C167.383 93.8182 167.641 93.6098 167.97 93.4318C168.3 93.25 168.735 93.1591 169.277 93.1591C169.982 93.1591 170.61 93.3371 171.163 93.6932C171.716 94.0492 172.15 94.5625 172.464 95.233C172.783 95.9034 172.942 96.7102 172.942 97.6534C172.942 98.5966 172.785 99.4053 172.47 100.08C172.156 100.75 171.724 101.267 171.175 101.631C170.625 101.991 169.999 102.17 169.294 102.17C168.764 102.17 168.33 102.081 167.993 101.903C167.66 101.725 167.398 101.517 167.209 101.278C167.019 101.04 166.874 100.828 166.771 100.642H166.669V105.273H164.97ZM166.635 97.6364C166.635 98.25 166.724 98.7879 166.902 99.25C167.08 99.7121 167.338 100.074 167.675 100.335C168.012 100.593 168.425 100.722 168.913 100.722C169.421 100.722 169.845 100.587 170.186 100.318C170.527 100.045 170.785 99.6761 170.959 99.2102C171.137 98.7443 171.226 98.2197 171.226 97.6364C171.226 97.0606 171.139 96.5436 170.964 96.0852C170.794 95.6269 170.536 95.2652 170.192 95C169.851 94.7348 169.425 94.6023 168.913 94.6023C168.421 94.6023 168.004 94.7292 167.663 94.983C167.326 95.2367 167.071 95.5909 166.896 96.0455C166.722 96.5 166.635 97.0303 166.635 97.6364ZM178.919 93.2727V94.6364H174.152V93.2727H178.919ZM175.43 91.1818H177.129V99.4375C177.129 99.767 177.179 100.015 177.277 100.182C177.375 100.345 177.502 100.456 177.658 100.517C177.817 100.574 177.989 100.602 178.175 100.602C178.311 100.602 178.43 100.593 178.533 100.574C178.635 100.555 178.714 100.54 178.771 100.528L179.078 101.932C178.98 101.97 178.839 102.008 178.658 102.045C178.476 102.087 178.249 102.11 177.976 102.114C177.529 102.121 177.112 102.042 176.726 101.875C176.339 101.708 176.027 101.451 175.788 101.102C175.55 100.754 175.43 100.316 175.43 99.7898V91.1818ZM184.381 102.176C183.563 102.176 182.848 101.989 182.239 101.614C181.629 101.239 181.155 100.714 180.818 100.04C180.481 99.3655 180.312 98.5777 180.312 97.6761C180.312 96.7708 180.481 95.9792 180.818 95.3011C181.155 94.6231 181.629 94.0966 182.239 93.7216C182.848 93.3466 183.563 93.1591 184.381 93.1591C185.199 93.1591 185.913 93.3466 186.523 93.7216C187.133 94.0966 187.606 94.6231 187.943 95.3011C188.28 95.9792 188.449 96.7708 188.449 97.6761C188.449 98.5777 188.28 99.3655 187.943 100.04C187.606 100.714 187.133 101.239 186.523 101.614C185.913 101.989 185.199 102.176 184.381 102.176ZM184.386 100.75C184.917 100.75 185.356 100.61 185.705 100.33C186.053 100.049 186.311 99.6761 186.477 99.2102C186.648 98.7443 186.733 98.2311 186.733 97.6705C186.733 97.1136 186.648 96.6023 186.477 96.1364C186.311 95.6667 186.053 95.2898 185.705 95.0057C185.356 94.7216 184.917 94.5795 184.386 94.5795C183.852 94.5795 183.409 94.7216 183.057 95.0057C182.708 95.2898 182.449 95.6667 182.278 96.1364C182.112 96.6023 182.028 97.1136 182.028 97.6705C182.028 98.2311 182.112 98.7443 182.278 99.2102C182.449 99.6761 182.708 100.049 183.057 100.33C183.409 100.61 183.852 100.75 184.386 100.75ZM196.472 102L193.903 93.2727H195.659L197.369 99.6818H197.455L199.17 93.2727H200.926L202.631 99.6534H202.716L204.415 93.2727H206.17L203.608 102H201.875L200.102 95.6989H199.972L198.199 102H196.472ZM207.783 102V93.2727H209.482V102H207.783ZM208.641 91.9261C208.345 91.9261 208.091 91.8277 207.879 91.6307C207.671 91.4299 207.567 91.1913 207.567 90.9148C207.567 90.6345 207.671 90.3958 207.879 90.1989C208.091 89.9981 208.345 89.8977 208.641 89.8977C208.936 89.8977 209.188 89.9981 209.396 90.1989C209.608 90.3958 209.714 90.6345 209.714 90.9148C209.714 91.1913 209.608 91.4299 209.396 91.6307C209.188 91.8277 208.936 91.9261 208.641 91.9261ZM215.841 93.2727V94.6364H211.074V93.2727H215.841ZM212.352 91.1818H214.051V99.4375C214.051 99.767 214.1 100.015 214.199 100.182C214.297 100.345 214.424 100.456 214.58 100.517C214.739 100.574 214.911 100.602 215.097 100.602C215.233 100.602 215.352 100.593 215.455 100.574C215.557 100.555 215.636 100.54 215.693 100.528L216 101.932C215.902 101.97 215.761 102.008 215.58 102.045C215.398 102.087 215.17 102.11 214.898 102.114C214.451 102.121 214.034 102.042 213.648 101.875C213.261 101.708 212.949 101.451 212.71 101.102C212.472 100.754 212.352 100.316 212.352 99.7898V91.1818ZM219.607 96.8182V102H217.908V90.3636H219.584V94.6932H219.692C219.896 94.2235 220.209 93.8504 220.629 93.5739C221.05 93.2973 221.599 93.1591 222.277 93.1591C222.875 93.1591 223.398 93.2822 223.845 93.5284C224.296 93.7746 224.644 94.142 224.891 94.6307C225.141 95.1155 225.266 95.7216 225.266 96.4489V102H223.567V96.6534C223.567 96.0133 223.402 95.517 223.072 95.1648C222.743 94.8087 222.285 94.6307 221.697 94.6307C221.296 94.6307 220.936 94.7159 220.618 94.8864C220.304 95.0568 220.055 95.3068 219.874 95.6364C219.696 95.9621 219.607 96.3561 219.607 96.8182ZM231.903 102V90.3636H239.119V91.875H233.659V95.4205H238.602V96.9261H233.659V102H231.903ZM241.142 102V93.2727H242.841V102H241.142ZM242 91.9261C241.705 91.9261 241.451 91.8277 241.239 91.6307C241.03 91.4299 240.926 91.1913 240.926 90.9148C240.926 90.6345 241.03 90.3958 241.239 90.1989C241.451 89.9981 241.705 89.8977 242 89.8977C242.295 89.8977 242.547 89.9981 242.756 90.1989C242.968 90.3958 243.074 90.6345 243.074 90.9148C243.074 91.1913 242.968 91.4299 242.756 91.6307C242.547 91.8277 242.295 91.9261 242 91.9261ZM247.666 102.193C247.113 102.193 246.613 102.091 246.166 101.886C245.719 101.678 245.365 101.377 245.104 100.983C244.846 100.589 244.717 100.106 244.717 99.5341C244.717 99.0417 244.812 98.6364 245.001 98.3182C245.191 98 245.446 97.7481 245.768 97.5625C246.09 97.3769 246.45 97.2367 246.848 97.142C247.246 97.0473 247.651 96.9754 248.064 96.9261C248.587 96.8655 249.011 96.8163 249.337 96.7784C249.662 96.7367 249.899 96.6705 250.047 96.5795C250.195 96.4886 250.268 96.3409 250.268 96.1364V96.0966C250.268 95.6004 250.128 95.2159 249.848 94.9432C249.571 94.6705 249.159 94.5341 248.609 94.5341C248.037 94.5341 247.587 94.661 247.257 94.9148C246.931 95.1648 246.706 95.4432 246.581 95.75L244.984 95.3864C245.174 94.8561 245.45 94.428 245.814 94.1023C246.181 93.7727 246.604 93.5341 247.081 93.3864C247.558 93.2348 248.06 93.1591 248.587 93.1591C248.935 93.1591 249.304 93.2008 249.695 93.2841C250.089 93.3636 250.456 93.5114 250.797 93.7273C251.142 93.9432 251.424 94.2519 251.643 94.6534C251.863 95.0511 251.973 95.5682 251.973 96.2045V102H250.314V100.807H250.246C250.136 101.027 249.971 101.242 249.751 101.455C249.532 101.667 249.25 101.843 248.905 101.983C248.56 102.123 248.147 102.193 247.666 102.193ZM248.036 100.83C248.505 100.83 248.907 100.737 249.24 100.551C249.577 100.366 249.833 100.123 250.007 99.8239C250.185 99.5208 250.274 99.197 250.274 98.8523V97.7273C250.214 97.7879 250.096 97.8447 249.922 97.8977C249.751 97.947 249.556 97.9905 249.337 98.0284C249.117 98.0625 248.903 98.0947 248.695 98.125C248.486 98.1515 248.312 98.1742 248.172 98.1932C247.842 98.2348 247.541 98.3049 247.268 98.4034C247 98.5019 246.784 98.6439 246.621 98.8295C246.462 99.0114 246.382 99.2538 246.382 99.5568C246.382 99.9773 246.537 100.295 246.848 100.511C247.159 100.723 247.554 100.83 248.036 100.83ZM258.31 93.2727V94.6364H253.543V93.2727H258.31ZM254.821 91.1818H256.52V99.4375C256.52 99.767 256.569 100.015 256.668 100.182C256.766 100.345 256.893 100.456 257.048 100.517C257.207 100.574 257.38 100.602 257.565 100.602C257.702 100.602 257.821 100.593 257.923 100.574C258.026 100.555 258.105 100.54 258.162 100.528L258.469 101.932C258.37 101.97 258.23 102.008 258.048 102.045C257.866 102.087 257.639 102.11 257.366 102.114C256.92 102.121 256.503 102.042 256.116 101.875C255.73 101.708 255.418 101.451 255.179 101.102C254.94 100.754 254.821 100.316 254.821 99.7898V91.1818Z" fill="white"/>
<path d="M137.678 55.5547C132.124 55.5547 127.826 59.6934 127.826 65.2774C127.826 70.8613 132.058 75 137.678 75C143.298 75 147.595 70.7956 147.595 65.2774C147.595 59.7591 143.364 55.5547 137.678 55.5547ZM137.744 70.927C134.57 70.927 132.322 68.4964 132.322 65.2117C132.322 61.927 134.57 59.4964 137.744 59.4964C140.917 59.4964 143.231 61.927 143.231 65.2117C143.231 68.4964 140.851 70.927 137.744 70.927ZM148.785 59.7591H151.496V74.6058H155.926V55.8832H148.785V59.7591ZM116.785 59.562C119.099 59.562 120.95 60.9416 121.612 63.0438H126.24C125.38 58.5766 121.678 55.4891 116.785 55.4891C111.298 55.5547 107 59.6934 107 65.2774C107 70.8613 111.231 75 116.851 75C121.612 75 125.38 71.9781 126.24 67.4453H121.612C120.95 69.5474 119.099 70.9927 116.851 70.9927C113.678 70.9927 111.43 68.562 111.43 65.2774C111.43 61.9927 113.612 59.562 116.785 59.562ZM232.157 63.438L228.917 62.9781C227.397 62.781 226.273 62.2555 226.273 61.073C226.273 59.7591 227.727 59.1022 229.645 59.1022C231.76 59.1022 233.149 60.0219 233.413 61.4672H237.645C237.182 57.7226 234.273 55.4891 229.777 55.4891C225.149 55.4891 222.041 57.854 222.041 61.2044C222.041 64.3577 224.025 66.2628 228.124 66.7883L231.364 67.2482C232.95 67.4453 233.81 68.1022 233.81 69.219C233.81 70.7299 232.289 71.3212 230.174 71.3212C227.595 71.3212 226.141 70.2701 225.876 68.6934H221.579C221.975 72.3723 224.884 74.9343 230.107 74.9343C234.868 74.9343 238.107 72.7664 238.107 69.0219C238.107 65.7372 235.793 64.0292 232.157 63.438ZM153.744 48.1971C152.157 48.1971 150.901 49.3796 150.901 50.9562C150.901 52.5328 152.091 53.7153 153.744 53.7153C155.331 53.7153 156.587 52.5328 156.587 50.9562C156.587 49.3796 155.331 48.1971 153.744 48.1971ZM218.141 62.3212C218.141 58.2482 215.628 55.5547 210.405 55.5547C205.446 55.5547 202.669 58.0511 202.074 61.8613H206.438C206.636 60.3504 207.826 59.1679 210.339 59.1679C212.587 59.1679 213.645 60.1533 213.645 61.3358C213.645 62.9124 211.661 63.3066 209.149 63.5693C205.777 63.9635 201.612 65.0803 201.612 69.4161C201.612 72.7664 204.124 74.9343 208.157 74.9343C211.331 74.9343 213.248 73.6204 214.24 71.5839C214.372 73.4234 215.76 74.6058 217.744 74.6058H220.322V70.7299H218.141V62.3212ZM213.777 66.9854C213.777 69.4818 211.595 71.3212 208.884 71.3212C207.231 71.3212 205.843 70.6642 205.843 69.1533C205.843 67.3139 208.091 66.7883 210.141 66.5912C212.124 66.3942 213.182 66 213.777 65.146V66.9854ZM190.504 55.5547C188.058 55.5547 186.008 56.5401 184.554 58.2482V48H180.19V74.6058H184.488V72.1752C185.942 73.9489 188.058 75 190.504 75C195.793 75 199.76 70.8613 199.76 65.2774C199.76 59.6934 195.727 55.5547 190.504 55.5547ZM189.843 70.927C186.669 70.927 184.421 68.4964 184.421 65.2117C184.421 61.927 186.736 59.4964 189.909 59.4964C193.083 59.4964 195.331 61.927 195.331 65.2117C195.331 68.562 193.017 70.927 189.843 70.927ZM169.678 55.5547C166.835 55.5547 164.983 56.7372 163.86 58.3139V55.8832H159.496V74.6058H163.86V64.4234C163.86 61.5328 165.711 59.562 168.421 59.562C170.934 59.562 172.521 61.3358 172.521 63.8978V74.6058H176.884V63.5693C176.884 58.8394 174.438 55.5547 169.678 55.5547ZM259 64.6861C259 59.2993 255.033 55.5547 249.744 55.5547C244.124 55.5547 239.959 59.7591 239.959 65.2774C239.959 71.1241 244.388 75 249.81 75C254.372 75 257.942 72.3066 258.868 68.4964H254.306C253.645 70.1387 252.058 71.1241 249.876 71.1241C247.033 71.1241 244.917 69.4161 244.455 66.3285H259V64.6861ZM244.719 63.2409C245.446 60.6131 247.364 59.365 249.678 59.365C252.19 59.365 254.041 60.7445 254.504 63.2409H244.719Z" fill="white"/>
</svg>
