<svg width="25" height="24" viewBox="0 0 25 24" fill="none" xmlns="http://www.w3.org/2000/svg">
<path fill-rule="evenodd" clip-rule="evenodd" d="M9.793 3.29349C9.98049 3.10594 10.2348 3.00054 10.5 3.00049H14.5C15.2956 3.00049 16.0587 3.31656 16.6213 3.87917C17.1839 4.44178 17.5 5.20484 17.5 6.00049V15.0005C17.5 15.7961 17.1839 16.5592 16.6213 17.1218C16.0587 17.6844 15.2956 18.0005 14.5 18.0005H7.5C6.70435 18.0005 5.94129 17.6844 5.37868 17.1218C4.81607 16.5592 4.5 15.7961 4.5 15.0005V9.00049C4.50006 8.73529 4.60545 8.48098 4.793 8.29349L9.793 3.29349ZM14.5 5.00049H11.5V9.00049C11.5 9.2657 11.3946 9.52006 11.2071 9.70759C11.0196 9.89513 10.7652 10.0005 10.5 10.0005H6.5V15.0005C6.5 15.2657 6.60536 15.5201 6.79289 15.7076C6.98043 15.8951 7.23478 16.0005 7.5 16.0005H14.5C14.7652 16.0005 15.0196 15.8951 15.2071 15.7076C15.3946 15.5201 15.5 15.2657 15.5 15.0005V6.00049C15.5 5.73527 15.3946 5.48092 15.2071 5.29338C15.0196 5.10585 14.7652 5.00049 14.5 5.00049ZM7.914 8.00049H9.5V6.41449L7.914 8.00049ZM19.5 5.00049C19.7652 5.00049 20.0196 5.10585 20.2071 5.29338C20.3946 5.48092 20.5 5.73527 20.5 6.00049V18.0005C20.5 18.7961 20.1839 19.5592 19.6213 20.1218C19.0587 20.6844 18.2956 21.0005 17.5 21.0005H7.5C7.23478 21.0005 6.98043 20.8951 6.79289 20.7076C6.60536 20.5201 6.5 20.2657 6.5 20.0005C6.5 19.7353 6.60536 19.4809 6.79289 19.2934C6.98043 19.1058 7.23478 19.0005 7.5 19.0005H17.5C17.7652 19.0005 18.0196 18.8951 18.2071 18.7076C18.3946 18.5201 18.5 18.2657 18.5 18.0005V6.00049C18.5 5.73527 18.6054 5.48092 18.7929 5.29338C18.9804 5.10585 19.2348 5.00049 19.5 5.00049Z" fill="#107DEF"/>
</svg>
