<svg width="80" height="80" viewBox="0 0 80 80" fill="none" xmlns="http://www.w3.org/2000/svg">
<path fill-rule="evenodd" clip-rule="evenodd" d="M40 80C62.0914 80 80 62.0914 80 40C80 17.9086 62.0914 0 40 0C17.9086 0 0 17.9086 0 40C0 62.0914 17.9086 80 40 80Z" fill="#F84960"/>
<path fill-rule="evenodd" clip-rule="evenodd" d="M57.3805 26.9749C58.7473 25.608 58.7473 23.392 57.3805 22.0251C56.0136 20.6583 53.7976 20.6583 52.4307 22.0251L39.3494 35.1064L26.9752 22.7322C25.6084 21.3654 23.3923 21.3654 22.0255 22.7322C20.6586 24.099 20.6586 26.3151 22.0255 27.6819L34.3997 40.0562L22.0251 52.4307C20.6583 53.7976 20.6583 56.0136 22.0251 57.3805C23.392 58.7473 25.608 58.7473 26.9749 57.3805L39.3494 45.0059L52.4311 58.0875C53.7979 59.4544 56.014 59.4544 57.3808 58.0875C58.7477 56.7207 58.7477 54.5046 57.3808 53.1378L44.2992 40.0562L57.3805 26.9749Z" fill="white"/>
</svg>
