<svg width="18" height="18" viewBox="0 0 18 18" fill="none" xmlns="http://www.w3.org/2000/svg">
<path d="M8.99996 4.83366C9.45829 4.83366 9.83329 5.20866 9.83329 5.66699V9.00033C9.83329 9.45866 9.45829 9.83366 8.99996 9.83366C8.54163 9.83366 8.16663 9.45866 8.16663 9.00033V5.66699C8.16663 5.20866 8.54163 4.83366 8.99996 4.83366ZM8.99163 0.666992C4.39163 0.666992 0.666626 4.40033 0.666626 9.00033C0.666626 13.6003 4.39163 17.3337 8.99163 17.3337C13.6 17.3337 17.3333 13.6003 17.3333 9.00033C17.3333 4.40033 13.6 0.666992 8.99163 0.666992ZM8.99996 15.667C5.31663 15.667 2.33329 12.6837 2.33329 9.00033C2.33329 5.31699 5.31663 2.33366 8.99996 2.33366C12.6833 2.33366 15.6666 5.31699 15.6666 9.00033C15.6666 12.6837 12.6833 15.667 8.99996 15.667ZM9.83329 13.167H8.16663V11.5003H9.83329V13.167Z" fill="#F84960"/>
</svg>
