<svg width="16" height="16" viewBox="0 0 16 16" fill="none" xmlns="http://www.w3.org/2000/svg">
<g clip-path="url(#clip0_1107_6126)">
<path d="M1.48188 0.00402488C1.33515 0.0201438 1.19453 0.0845362 1.08431 0.194433L0.195428 1.08069C-0.0254592 1.30137 -0.0637158 1.64446 0.104283 1.90724L1.81781 4.58766C2.07025 4.99135 2.48639 5.25326 2.96016 5.30688C3.01972 5.31353 3.07987 5.31726 3.13898 5.31726C3.47803 5.31726 3.80105 5.2023 4.0704 4.9979L7.33426 8.25214C6.84796 9.11576 6.96695 10.2315 7.69884 10.9689L12.0946 15.3275C12.5244 15.7591 13.0972 15.9978 13.7075 16H13.7161C14.3233 16 14.8944 15.7651 15.3255 15.3388C15.758 14.9103 15.9978 14.3391 16 13.7307C16.0022 13.1223 15.7674 12.5494 15.3385 12.1191L10.9471 7.76573C10.5173 7.33279 9.94448 7.09245 9.33337 7.08979H9.32296C8.96176 7.08979 8.61768 7.18187 8.30387 7.33905L5.01136 4.05625C5.25164 3.74042 5.36861 3.35 5.32299 2.94929C5.26877 2.47735 5.00596 2.0628 4.60685 1.81376L1.9133 0.103556C1.78107 0.0200261 1.6286 -0.012094 1.48188 0.00402488Z" fill="#C0C2CF"/>
<path d="M11.6083 0.00818174C11.1926 -0.0164844 10.7617 0.014008 10.3219 0.108006C8.47796 0.502219 7.02911 2.02917 6.72912 3.8909C6.69756 4.0869 6.67852 4.28007 6.67096 4.47162L8.52769 6.32835C8.78857 6.25813 9.05392 6.22245 9.32281 6.22245C10.1855 6.22645 10.982 6.56075 11.5788 7.1634L13.3132 8.88732C14.6958 8.23178 15.7262 6.9119 15.9511 5.3466C16.0591 4.59462 15.984 3.87331 15.7671 3.21644C15.6142 2.75423 15.0135 2.63114 14.669 2.97513L12.6864 4.95685C12.2264 5.41684 11.4348 5.4566 10.986 4.9855C10.7811 4.77039 10.6683 4.48859 10.6683 4.19038C10.6683 3.88238 10.7882 3.59351 11.0059 3.37529L13.0432 1.33801C13.3867 0.994464 13.2641 0.39461 12.8036 0.239947C12.4245 0.112617 12.0241 0.0328478 11.6083 0.00818174ZM5.28124 7.4811L0.658955 12.1268C0.231854 12.557 -0.00210516 13.1291 0.000117011 13.7362C0.00233918 14.3433 0.240896 14.9132 0.671108 15.3403C1.09954 15.7661 1.66733 16 2.27176 16H2.28044C2.88754 15.9978 3.45703 15.7592 3.88457 15.3281L7.31938 11.8777L7.07199 11.632C6.24846 10.8005 5.96806 9.58523 6.2925 8.49236L5.28124 7.4811Z" fill="#5D6588"/>
</g>
<defs>
<clipPath id="clip0_1107_6126">
<rect width="16" height="16" fill="white"/>
</clipPath>
</defs>
</svg>
