<svg width="16" height="16" viewBox="0 0 16 16" fill="none" xmlns="http://www.w3.org/2000/svg">
<path d="M1 1.60938C1 1.27283 1.26117 1 1.58333 1H14.4167C14.7389 1 15 1.27283 15 1.60938V3.64063C15 3.97718 14.7389 4.25001 14.4167 4.25001H1.58333C1.26117 4.25001 1 3.97718 1 3.64063V1.60938ZM1 6.48438C1 6.14784 1.26117 5.87501 1.58333 5.87501H8.19446C8.51662 5.87501 8.77779 6.14784 8.77779 6.48438V14.3906C8.77779 14.7272 8.51662 15 8.19446 15H1.58333C1.26117 15 1 14.7272 1 14.3906V6.48438ZM10.9167 5.87501C10.5945 5.87501 10.3333 6.14784 10.3333 6.48438V12.7656C10.3333 13.1022 10.5945 13.375 10.9167 13.375H14.4167C14.7389 13.375 15 13.1022 15 12.7656V6.48438C15 6.14784 14.7389 5.87501 14.4167 5.87501H10.9167Z" fill="#5D6588"/>
</svg>
