<svg width="16" height="16" viewBox="0 0 16 16" fill="none" xmlns="http://www.w3.org/2000/svg">
<path d="M5.08333 4C4.5471 4 4.01612 4.10346 3.52071 4.30448C3.0253 4.5055 2.57515 4.80014 2.19598 5.17157C1.81681 5.54301 1.51603 5.98396 1.31083 6.46927C1.10562 6.95457 1 7.47471 1 8C1 8.52529 1.10562 9.04543 1.31083 9.53073C1.51603 10.016 1.81681 10.457 2.19598 10.8284C2.57515 11.1999 3.0253 11.4945 3.52071 11.6955C4.01612 11.8965 4.5471 12 5.08333 12C5.61956 12 6.15054 11.8965 6.64596 11.6955C7.14137 11.4945 7.59151 11.1999 7.97069 10.8284C8.34986 10.457 8.65063 10.016 8.85584 9.53073C9.06105 9.04543 9.16667 8.52529 9.16667 8C9.16667 7.47471 9.06105 6.95457 8.85584 6.46927C8.65063 5.98396 8.34986 5.54301 7.97069 5.17157C7.59151 4.80014 7.14137 4.5055 6.64596 4.30448C6.15054 4.10346 5.61956 4 5.08333 4ZM11.5 4.28571C11.0359 4.28571 10.5908 4.67704 10.2626 5.3736C9.93437 6.07017 9.75 7.01491 9.75 8C9.75 8.98509 9.93437 9.92983 10.2626 10.6264C10.5908 11.323 11.0359 11.7143 11.5 11.7143C11.9641 11.7143 12.4092 11.323 12.7374 10.6264C13.0656 9.92983 13.25 8.98509 13.25 8C13.25 7.01491 13.0656 6.07017 12.7374 5.3736C12.4092 4.67704 11.9641 4.28571 11.5 4.28571ZM14.4167 5.14286C14.262 5.14286 14.1136 5.44388 14.0042 5.97969C13.8948 6.51551 13.8333 7.24224 13.8333 8C13.8333 8.75776 13.8948 9.48449 14.0042 10.0203C14.1136 10.5561 14.262 10.8571 14.4167 10.8571C14.5714 10.8571 14.7197 10.5561 14.8291 10.0203C14.9385 9.48449 15 8.75776 15 8C15 7.24224 14.9385 6.51551 14.8291 5.97969C14.7197 5.44388 14.5714 5.14286 14.4167 5.14286Z" fill="white"/>
</svg>
