<svg width="16" height="16" viewBox="0 0 16 16" fill="none" xmlns="http://www.w3.org/2000/svg">
<path d="M8.0001 1.6001C4.47179 1.6001 1.6001 4.47179 1.6001 8.0001C1.6001 11.5284 4.47179 14.4001 8.0001 14.4001C11.5284 14.4001 14.4001 11.5284 14.4001 8.0001C14.4001 4.47179 11.5284 1.6001 8.0001 1.6001ZM7.46781 2.69281C7.47449 2.82951 7.53347 2.95842 7.63256 3.05285C7.73164 3.14727 7.86323 3.19999 8.0001 3.2001C8.13697 3.19999 8.26856 3.14727 8.36764 3.05285C8.46672 2.95842 8.52571 2.82951 8.53239 2.69281C11.0575 2.94181 13.0584 4.94274 13.3074 7.46781C13.1707 7.47449 13.0418 7.53347 12.9474 7.63256C12.8529 7.73164 12.8002 7.86323 12.8001 8.0001C12.8002 8.13697 12.8529 8.26856 12.9474 8.36764C13.0418 8.46672 13.1707 8.52571 13.3074 8.53239C13.0584 11.0575 11.0575 13.0584 8.53239 13.3074C8.52571 13.1707 8.46672 13.0418 8.36764 12.9474C8.26856 12.8529 8.13697 12.8002 8.0001 12.8001C7.86323 12.8002 7.73164 12.8529 7.63256 12.9474C7.53347 13.0418 7.47449 13.1707 7.46781 13.3074C4.94274 13.0584 2.94181 11.0575 2.69281 8.53239C2.82951 8.52571 2.95842 8.46672 3.05285 8.36764C3.14727 8.26856 3.19999 8.13697 3.2001 8.0001C3.19999 7.86323 3.14727 7.73164 3.05285 7.63256C2.95842 7.53347 2.82951 7.47449 2.69281 7.46781C2.94181 4.94274 4.94274 2.94181 7.46781 2.69281ZM8.0001 3.73343C5.64383 3.73343 3.73343 5.64383 3.73343 8.0001C3.73343 10.3564 5.64383 12.2668 8.0001 12.2668C10.3564 12.2668 12.2668 10.3564 12.2668 8.0001C12.2668 5.64383 10.3564 3.73343 8.0001 3.73343ZM8.0001 4.8001C8.29503 4.8001 8.53343 5.03903 8.53343 5.33343V7.77926L9.97718 9.22301C10.1857 9.43155 10.1857 9.76865 9.97718 9.97718C9.87318 10.0812 9.73663 10.1334 9.6001 10.1334C9.46356 10.1334 9.32701 10.0812 9.22301 9.97718L7.46676 8.22093V5.33343C7.46676 5.03903 7.70516 4.8001 8.0001 4.8001Z" fill="#5D6588"/>
</svg>
