<svg width="16" height="16" viewBox="0 0 16 16" fill="none" xmlns="http://www.w3.org/2000/svg">
<g clip-path="url(#clip0_1108_1209)">
<path d="M8.00569 0.333008C7.09725 0.333008 6.37063 1.06317 6.3343 1.97586V7.56186C6.625 7.59837 6.95204 7.63459 7.42443 7.63459H7.67851H9.27751C9.38653 7.63459 9.53188 7.67096 9.64089 7.67096V1.97586C9.64089 1.06317 8.91414 0.333008 8.00569 0.333008ZM3.10009 1.79333C2.19165 1.79333 1.46489 2.52348 1.46489 3.43618V8.40112C2.19165 7.78048 3.17305 7.26952 4.29952 7.26952H4.73529V3.43618C4.73529 2.52348 4.00854 1.79333 3.10009 1.79333ZM12.9113 2.88856C12.0028 2.88856 11.2761 3.61872 11.2761 4.53142V8.32839C11.6395 8.07283 12.221 7.78034 13.0568 7.34225L13.384 7.15971C13.8564 6.90415 14.2194 6.72161 14.5465 6.61209V4.53142C14.5465 3.61872 13.8197 2.88856 12.9113 2.88856ZM15.0554 7.26952C14.692 7.26952 14.2559 7.52521 13.4202 7.96331C12.6934 8.32839 12.0393 8.69318 11.6033 8.94874C11.6396 9.09477 11.6757 9.27745 11.6757 9.45999C11.6757 10.6648 10.6945 11.6505 9.4954 11.6505H6.77007C6.47936 11.6505 6.225 11.3949 6.225 11.1028C6.225 10.8108 6.47936 10.5552 6.77007 10.5552H9.4592C10.0769 10.5552 10.5493 10.0806 10.5493 9.45999C10.5493 9.13142 10.404 8.83964 10.186 8.6571C9.93159 8.47456 9.60455 8.36475 9.27751 8.36475H7.67851H7.46063H7.42443C6.47965 8.36475 6.00726 8.25537 5.60754 8.14585C5.24416 8.07283 4.88093 7.99967 4.29952 7.99967C1.64687 7.99967 0.120254 11.2855 0.0475789 11.4316C-0.0250967 11.6141 -0.0246708 11.8331 0.12068 11.9792L2.66432 15.4474C2.77334 15.5935 2.9184 15.6663 3.10009 15.6663H3.20939C3.42742 15.6298 3.57248 15.4839 3.64516 15.2649C3.6815 15.1554 3.93586 14.206 4.91698 14.206C5.64374 14.206 6.37063 14.3155 7.06105 14.3886C7.78781 14.4616 8.51442 14.5711 9.27751 14.5711C10.295 14.5711 11.0217 13.8044 13.093 11.6505C15.7456 8.91237 16 8.69347 16 8.14585C16 7.67125 15.6004 7.26952 15.0554 7.26952Z" fill="#5D6588"/>
</g>
<defs>
<clipPath id="clip0_1108_1209">
<rect width="16" height="16" fill="#5D6588"/>
</clipPath>
</defs>
</svg>
