<svg width="17" height="16" viewBox="0 0 17 16" fill="none" xmlns="http://www.w3.org/2000/svg">
<g clip-path="url(#clip0_777_623)">
<path opacity="0.35" d="M8.61072 7.5689L10.0816 2.66723C8.90405 2.31473 7.59488 2.26723 6.23488 2.66723C3.85238 3.36807 2.02655 5.41307 1.60322 7.86057C0.805718 12.4706 4.74739 16.4131 9.35739 15.6147C11.8041 15.1914 13.8499 13.3656 14.5507 10.9831C14.9507 9.62307 14.9032 8.31307 14.5507 7.1364L9.64905 8.60723C9.01238 8.79723 8.41989 8.20473 8.61072 7.5689Z" fill="#5D6588"/>
<path d="M11.3149 6.94L16.2165 5.46917C15.5749 3.32833 13.8882 1.64167 11.7474 1L10.2765 5.90167C10.0865 6.53833 10.679 7.13083 11.3149 6.94Z" fill="#5D6588"/>
</g>
<defs>
<clipPath id="clip0_777_623">
<rect width="16" height="16" fill="white" transform="translate(0.5)"/>
</clipPath>
</defs>
</svg>
