<svg width="16" height="16" viewBox="0 0 16 16" fill="none" xmlns="http://www.w3.org/2000/svg">
<path d="M1.01074 6.58847C5.62646 4.47439 11.5996 1.8969 12.4241 1.54015C14.5869 0.606428 15.2505 0.785373 14.9196 2.85318C14.682 4.33942 13.9963 9.26003 13.4498 12.3227C13.1256 14.139 12.398 14.3542 11.254 13.5685C10.7038 13.1903 7.92698 11.2785 7.32431 10.8296C6.77415 10.4205 6.01539 9.9284 6.96696 8.95911C7.30558 8.61384 9.5253 6.40723 11.2547 4.68966C11.4813 4.46407 11.1967 4.09356 10.9352 4.27442C8.60421 5.88378 5.37232 8.11753 4.96099 8.40851C4.33958 8.84784 3.74279 9.04935 2.67149 8.72893C1.86205 8.48689 1.07134 8.19821 0.763573 8.08809C-0.421576 7.66443 -0.140254 7.11575 1.01074 6.58847Z" fill="#C0C2CF"/>
</svg>
