<svg width="16" height="16" viewBox="0 0 16 16" fill="none" xmlns="http://www.w3.org/2000/svg">
<path d="M11.8332 1.3335H4.1665C3.3395 1.3335 2.6665 2.0065 2.6665 2.8335V13.1668C2.6665 13.9938 3.3395 14.6668 4.1665 14.6668H11.8332C12.6602 14.6668 13.3332 13.9938 13.3332 13.1668V2.8335C13.3332 2.0065 12.6602 1.3335 11.8332 1.3335ZM5.49984 11.6668C5.22384 11.6668 4.99984 11.4428 4.99984 11.1668C4.99984 10.8908 5.22384 10.6668 5.49984 10.6668C5.77584 10.6668 5.99984 10.8908 5.99984 11.1668C5.99984 11.4428 5.77584 11.6668 5.49984 11.6668ZM5.49984 9.66683C5.22384 9.66683 4.99984 9.44283 4.99984 9.16683C4.99984 8.89083 5.22384 8.66683 5.49984 8.66683C5.77584 8.66683 5.99984 8.89083 5.99984 9.16683C5.99984 9.44283 5.77584 9.66683 5.49984 9.66683ZM5.49984 7.66683C5.22384 7.66683 4.99984 7.44283 4.99984 7.16683C4.99984 6.89083 5.22384 6.66683 5.49984 6.66683C5.77584 6.66683 5.99984 6.89083 5.99984 7.16683C5.99984 7.44283 5.77584 7.66683 5.49984 7.66683ZM10.4998 11.6668H7.49984C7.22384 11.6668 6.99984 11.4428 6.99984 11.1668C6.99984 10.8908 7.22384 10.6668 7.49984 10.6668H10.4998C10.7758 10.6668 10.9998 10.8908 10.9998 11.1668C10.9998 11.4428 10.7758 11.6668 10.4998 11.6668ZM10.4998 9.66683H7.49984C7.22384 9.66683 6.99984 9.44283 6.99984 9.16683C6.99984 8.89083 7.22384 8.66683 7.49984 8.66683H10.4998C10.7758 8.66683 10.9998 8.89083 10.9998 9.16683C10.9998 9.44283 10.7758 9.66683 10.4998 9.66683ZM10.4998 7.66683H7.49984C7.22384 7.66683 6.99984 7.44283 6.99984 7.16683C6.99984 6.89083 7.22384 6.66683 7.49984 6.66683H10.4998C10.7758 6.66683 10.9998 6.89083 10.9998 7.16683C10.9998 7.44283 10.7758 7.66683 10.4998 7.66683ZM10.4998 4.66683H5.49984C5.22384 4.66683 4.99984 4.44283 4.99984 4.16683C4.99984 3.89083 5.22384 3.66683 5.49984 3.66683H10.4998C10.7758 3.66683 10.9998 3.89083 10.9998 4.16683C10.9998 4.44283 10.7758 4.66683 10.4998 4.66683Z" fill="#5D6588"/>
</svg>
