<svg width="16" height="16" viewBox="0 0 16 16" fill="none" xmlns="http://www.w3.org/2000/svg">
<path d="M9.33398 1.33203H6.00065C2.66732 1.33203 1.33398 2.66536 1.33398 5.9987V9.9987C1.33398 13.332 2.66732 14.6654 6.00065 14.6654" stroke="#C0C2CF" stroke-width="1.5" stroke-linecap="round" stroke-linejoin="round"/>
<path d="M14.668 6.66406V8.66406" stroke="#C0C2CF" stroke-width="1.5" stroke-linecap="round" stroke-linejoin="round"/>
<path d="M14.6673 6.66536H12.0007C10.0007 6.66536 9.33398 5.9987 9.33398 3.9987V1.33203L14.6673 6.66536Z" stroke="#C0C2CF" stroke-width="1.5" stroke-linecap="round" stroke-linejoin="round"/>
<path d="M9.17305 12.1745C7.60638 12.2879 7.60638 14.5545 9.17305 14.6679H12.8797C13.3264 14.6679 13.7664 14.5012 14.093 14.2012C15.193 13.2412 14.6064 11.3212 13.1597 11.1412C12.6397 8.01452 8.11971 9.20118 9.18638 12.1812" stroke="#C0C2CF" stroke-width="1.5" stroke-miterlimit="10" stroke-linecap="round" stroke-linejoin="round"/>
</svg>
