<svg width="16" height="16" viewBox="0 0 16 16" fill="none" xmlns="http://www.w3.org/2000/svg">
<path d="M6.20185 1C5.35701 1 4.64268 1.54519 4.37379 2.3H1.65832C1.57231 2.29878 1.48692 2.31469 1.4071 2.34681C1.32728 2.37893 1.25464 2.42662 1.19339 2.4871C1.13213 2.54757 1.08349 2.61964 1.05029 2.69911C1.0171 2.77858 1 2.86386 1 2.95C1 3.03614 1.0171 3.12142 1.05029 3.20089C1.08349 3.28036 1.13213 3.35243 1.19339 3.4129C1.25464 3.47338 1.32728 3.52107 1.4071 3.55319C1.48692 3.58531 1.57231 3.60122 1.65832 3.6H4.37379C4.64268 4.35481 5.35701 4.9 6.20185 4.9C7.27542 4.9 8.14908 4.0251 8.14908 2.95C8.14908 1.8749 7.27542 1 6.20185 1ZM10.0963 2.3C10.0103 2.29878 9.9249 2.31469 9.84508 2.34681C9.76527 2.37893 9.69262 2.42662 9.63137 2.4871C9.57012 2.54757 9.52148 2.61964 9.48828 2.69911C9.45508 2.77858 9.43798 2.86386 9.43798 2.95C9.43798 3.03614 9.45508 3.12142 9.48828 3.20089C9.52148 3.28036 9.57012 3.35243 9.63137 3.4129C9.69262 3.47338 9.76527 3.52107 9.84508 3.55319C9.9249 3.58531 10.0103 3.60122 10.0963 3.6H13.3417C13.4277 3.60122 13.5131 3.58531 13.5929 3.55319C13.6727 3.52107 13.7454 3.47338 13.8066 3.4129C13.8679 3.35243 13.9165 3.28036 13.9497 3.20089C13.9829 3.12142 14 3.03614 14 2.95C14 2.86386 13.9829 2.77858 13.9497 2.69911C13.9165 2.61964 13.8679 2.54757 13.8066 2.4871C13.7454 2.42662 13.6727 2.37893 13.5929 2.34681C13.5131 2.31469 13.4277 2.29878 13.3417 2.3H10.0963ZM9.44723 5.55C8.60238 5.55 7.88806 6.09519 7.61917 6.85H1.65832C1.57231 6.84878 1.48692 6.86469 1.4071 6.89681C1.32728 6.92893 1.25464 6.97662 1.19339 7.0371C1.13213 7.09757 1.08349 7.16964 1.05029 7.24911C1.0171 7.32858 1 7.41386 1 7.5C1 7.58614 1.0171 7.67142 1.05029 7.75089C1.08349 7.83036 1.13213 7.90242 1.19339 7.9629C1.25464 8.02338 1.32728 8.07107 1.4071 8.10319C1.48692 8.13531 1.57231 8.15122 1.65832 8.15H7.61917C7.88806 8.90481 8.60238 9.45 9.44723 9.45C10.5208 9.45 11.3945 8.5751 11.3945 7.5C11.3945 6.4249 10.5208 5.55 9.44723 5.55ZM13.3417 6.85C13.2557 6.84878 13.1703 6.86469 13.0905 6.89681C13.0106 6.92893 12.938 6.97662 12.8767 7.0371C12.8155 7.09757 12.7669 7.16964 12.7337 7.24911C12.7005 7.32858 12.6834 7.41386 12.6834 7.5C12.6834 7.58614 12.7005 7.67142 12.7337 7.75089C12.7669 7.83036 12.8155 7.90242 12.8767 7.9629C12.938 8.02338 13.0106 8.07107 13.0905 8.10319C13.1703 8.13531 13.2557 8.15122 13.3417 8.15C13.4277 8.15122 13.5131 8.13531 13.5929 8.10319C13.6727 8.07107 13.7454 8.02338 13.8066 7.9629C13.8679 7.90242 13.9165 7.83036 13.9497 7.75089C13.9829 7.67142 14 7.58614 14 7.5C14 7.41386 13.9829 7.32858 13.9497 7.24911C13.9165 7.16964 13.8679 7.09757 13.8066 7.0371C13.7454 6.97662 13.6727 6.92893 13.5929 6.89681C13.5131 6.86469 13.4277 6.84878 13.3417 6.85ZM4.25462 10.1C3.40978 10.1 2.69545 10.6452 2.42656 11.4H1.65832C1.57231 11.3988 1.48692 11.4147 1.4071 11.4468C1.32728 11.4789 1.25464 11.5266 1.19339 11.5871C1.13213 11.6476 1.08349 11.7196 1.05029 11.7991C1.0171 11.8786 1 11.9639 1 12.05C1 12.1361 1.0171 12.2214 1.05029 12.3009C1.08349 12.3804 1.13213 12.4524 1.19339 12.5129C1.25464 12.5734 1.32728 12.6211 1.4071 12.6532C1.48692 12.6853 1.57231 12.7012 1.65832 12.7H2.42656C2.69545 13.4548 3.40978 14 4.25462 14C5.32819 14 6.20185 13.1251 6.20185 12.05C6.20185 10.9749 5.32819 10.1 4.25462 10.1ZM8.14908 11.4C8.06307 11.3988 7.97767 11.4147 7.89786 11.4468C7.81804 11.4789 7.74539 11.5266 7.68414 11.5871C7.62289 11.6476 7.57425 11.7196 7.54105 11.7991C7.50785 11.8786 7.49076 11.9639 7.49076 12.05C7.49076 12.1361 7.50785 12.2214 7.54105 12.3009C7.57425 12.3804 7.62289 12.4524 7.68414 12.5129C7.74539 12.5734 7.81804 12.6211 7.89786 12.6532C7.97767 12.6853 8.06307 12.7012 8.14908 12.7H13.3417C13.4277 12.7012 13.5131 12.6853 13.5929 12.6532C13.6727 12.6211 13.7454 12.5734 13.8066 12.5129C13.8679 12.4524 13.9165 12.3804 13.9497 12.3009C13.9829 12.2214 14 12.1361 14 12.05C14 11.9639 13.9829 11.8786 13.9497 11.7991C13.9165 11.7196 13.8679 11.6476 13.8066 11.5871C13.7454 11.5266 13.6727 11.4789 13.5929 11.4468C13.5131 11.4147 13.4277 11.3988 13.3417 11.4H8.14908Z" fill="#C0C2CF"/>
</svg>
