<svg xmlns="http://www.w3.org/2000/svg" viewBox="0 0 512 512" width="256" height="256">
<path d="M256 496c-64.106 0-124.375-24.964-169.706-70.294S16 320.106 16 256 40.964 131.625 86.294 86.294 191.894 16 256 16s124.376 24.964 169.706 70.294S496 191.894 496 256s-24.964 124.376-70.294 169.706S320.106 496 256 496zm0-460C134.691 36 36 134.691 36 256s98.691 220 220 220 220-98.691 220-220S377.309 36 256 36z" fill="#5D6588"/>
<path d="M256 436c-99.252 0-180-80.748-180-180S156.748 76 256 76s180 80.748 180 180-80.748 180-180 180zm0-340c-88.224 0-160 71.776-160 160 0 88.225 71.776 160 160 160 88.225 0 160-71.775 160-160 0-88.224-71.775-160-160-160z" fill="#5D6588"/>
<path d="M256 396c-77.196 0-140-62.804-140-140s62.804-140 140-140 140 62.804 140 140-62.804 140-140 140zm0-260c-66.168 0-120 53.832-120 120s53.832 120 120 120 120-53.832 120-120-53.832-120-120-120z" fill="#5D6588"/>
<path d="M256 336a9.995 9.995 0 0 1-4.886-1.275l-60-33.6A9.999 9.999 0 0 1 186 292.4v-72.8a9.999 9.999 0 0 1 5.114-8.725l60-33.6a10 10 0 0 1 9.772 0l60 33.6A10 10 0 0 1 326 219.6v72.8a10 10 0 0 1-5.114 8.725l-60 33.6A9.995 9.995 0 0 1 256 336zm-50-49.461 50 28 50-28v-61.078l-50-28-50 28v61.078z" fill="#5D6588"/>
<path d="M305.009 308.502a9.999 9.999 0 0 1-8.728-5.104c-2.705-4.815-.994-10.911 3.821-13.616l81-45.5c4.814-2.704 10.911-.995 13.616 3.821 2.705 4.815.994 10.911-3.821 13.616l-81 45.5a9.952 9.952 0 0 1-4.888 1.283zm10.992-60.002h-.043c-5.522-.023-9.98-4.519-9.958-10.042l.402-96.583c.023-5.508 4.496-9.958 9.999-9.958h.043c5.522.023 9.98 4.519 9.958 10.042L326 238.542c-.023 5.508-4.496 9.958-9.999 9.958zm-54.94-49.659a9.953 9.953 0 0 1-5.164-1.443l-72.668-43.923c-4.727-2.857-6.242-9.004-3.385-13.731 2.857-4.728 9.005-6.242 13.731-3.385l72.668 43.923c4.727 2.857 6.242 9.004 3.385 13.731a9.996 9.996 0 0 1-8.567 4.828zm-135.052 70.161a9.997 9.997 0 0 1-8.726-5.101c-2.707-4.814-.999-10.911 3.815-13.618l87.399-49.144c4.814-2.708 10.911-.999 13.618 3.815 2.707 4.814.999 10.911-3.815 13.618l-87.399 49.144a9.946 9.946 0 0 1-4.892 1.286zm67.594 111.081c-.09 0-.18-.001-.271-.004-5.521-.146-9.877-4.741-9.731-10.262l2.534-95.333a9.996 9.996 0 0 1 10.262-9.731c5.521.147 9.877 4.741 9.731 10.262l-2.534 95.333c-.144 5.431-4.592 9.735-9.991 9.735zm129.985-2.998a9.953 9.953 0 0 1-5.127-1.422l-81.348-48.708c-4.738-2.838-6.28-8.979-3.442-13.717 2.836-4.739 8.978-6.279 13.717-3.443l81.347 48.708c4.739 2.838 6.28 8.979 3.443 13.717a9.996 9.996 0 0 1-8.59 4.865z" fill="#5D6588"/>
</svg>