<svg width="16" height="16" viewBox="0 0 16 16" fill="none" xmlns="http://www.w3.org/2000/svg">
<path d="M8.0001 0.533203C6.2353 0.533203 4.8001 1.9684 4.8001 3.7332C4.8001 4.0276 5.03903 4.26654 5.33343 4.26654C5.62783 4.26654 5.86676 4.0276 5.86676 3.7332C5.86676 2.55667 6.82356 1.59987 8.0001 1.59987C9.17663 1.59987 10.1334 2.55667 10.1334 3.7332C10.1334 4.0276 10.3724 4.26654 10.6668 4.26654C10.9612 4.26654 11.2001 4.0276 11.2001 3.7332C11.2001 1.9684 9.7649 0.533203 8.0001 0.533203ZM3.70114 5.3332C3.46114 5.3332 3.25368 5.49333 3.18968 5.72799L2.98656 6.46966L2.30947 10.0801L1.74906 13.0613L1.6001 13.8665C1.6001 13.9892 1.64301 14.107 1.72301 14.203C1.82435 14.3257 1.97343 14.3999 2.13343 14.3999H3.2001C3.2001 14.6932 3.4401 14.9332 3.73343 14.9332C4.02676 14.9332 4.26676 14.6932 4.26676 14.3999H11.2001C11.2001 14.6932 11.4401 14.9332 11.7334 14.9332C12.0268 14.9332 12.2668 14.6932 12.2668 14.3999H13.8668C14.0268 14.3999 14.1758 14.331 14.2772 14.203C14.3572 14.107 14.4001 13.9892 14.4001 13.8665L14.2511 13.0613L13.6907 10.0801L13.0136 6.46966L12.8105 5.72799C12.7465 5.49333 12.5391 5.3332 12.2991 5.3332H3.70114ZM6.49072 7.42383C7.18939 7.42383 7.64281 7.89837 7.64281 8.62904C7.64281 9.35437 7.18939 9.82904 6.49072 9.82904C5.79739 9.82904 5.33343 9.35437 5.33343 8.62904C5.33343 7.89837 5.79206 7.42383 6.49072 7.42383ZM9.00322 7.53633H10.0907L8.2876 9.99466L7.02926 12.1967H5.94176L7.7126 9.75404L9.00322 7.53633ZM6.49072 8.11758C6.28806 8.11758 6.17093 8.30383 6.17093 8.62383C6.17093 8.93849 6.28806 9.13008 6.49072 9.13008C6.68272 9.13008 6.80531 8.93849 6.80531 8.62383C6.80531 8.30383 6.69339 8.11758 6.49072 8.11758ZM9.51468 9.90404C10.208 9.90404 10.6668 10.3787 10.6668 11.104C10.6668 11.8347 10.208 12.3092 9.51468 12.3092C8.81601 12.3092 8.3626 11.8347 8.3626 11.104C8.3626 10.3787 8.81601 9.90404 9.51468 9.90404ZM9.51468 10.5967C9.31735 10.5967 9.19489 10.784 9.19489 11.104C9.19489 11.424 9.31735 11.6103 9.51468 11.6103C9.71202 11.6103 9.82926 11.424 9.82926 11.104C9.82926 10.7787 9.71735 10.5967 9.51468 10.5967Z" fill="#5D6588"/>
</svg>
