<svg width="16" height="16" viewBox="0 0 16 16" fill="none" xmlns="http://www.w3.org/2000/svg">
<path d="M12.328 1.32812C12.2285 1.32815 12.1312 1.35786 12.0487 1.41346C11.9662 1.46906 11.9021 1.54801 11.8647 1.64022C11.8273 1.73243 11.8183 1.83371 11.8387 1.93108C11.8592 2.02846 11.9083 2.11751 11.9797 2.18685L12.6261 2.83333H2.49984C2.43358 2.8324 2.3678 2.84464 2.30632 2.86934C2.24483 2.89405 2.18887 2.93073 2.14169 2.97725C2.0945 3.02378 2.05703 3.07921 2.03146 3.14034C2.00589 3.20147 1.99272 3.26707 1.99272 3.33333C1.99272 3.3996 2.00589 3.4652 2.03146 3.52633C2.05703 3.58745 2.0945 3.64289 2.14169 3.68941C2.18887 3.73594 2.24483 3.77262 2.30632 3.79732C2.3678 3.82203 2.43358 3.83427 2.49984 3.83333H12.6261L11.9797 4.47982C11.9317 4.52589 11.8934 4.58107 11.867 4.64214C11.8406 4.7032 11.8266 4.76892 11.826 4.83544C11.8253 4.90196 11.8379 4.96794 11.863 5.02953C11.8882 5.09112 11.9254 5.14707 11.9724 5.19411C12.0194 5.24115 12.0754 5.27833 12.137 5.30347C12.1986 5.32862 12.2645 5.34122 12.3311 5.34055C12.3976 5.33987 12.4633 5.32593 12.5244 5.29954C12.5854 5.27314 12.6406 5.23483 12.6867 5.18685L14.1867 3.68685C14.2804 3.59308 14.3331 3.46592 14.3331 3.33333C14.3331 3.20075 14.2804 3.07359 14.1867 2.97982L12.6867 1.47982C12.6401 1.43182 12.5843 1.39367 12.5227 1.36761C12.4611 1.34155 12.3949 1.32813 12.328 1.32812ZM3.1665 6.33333C2.33817 6.33333 1.6665 7.005 1.6665 7.83333V13.1667C1.6665 13.995 2.33817 14.6667 3.1665 14.6667C3.99484 14.6667 4.6665 13.995 4.6665 13.1667V7.83333C4.6665 7.005 3.99484 6.33333 3.1665 6.33333ZM7.99984 6.33333C7.1715 6.33333 6.49984 7.005 6.49984 7.83333V13.1667C6.49984 13.995 7.1715 14.6667 7.99984 14.6667C8.82817 14.6667 9.49984 13.995 9.49984 13.1667V7.83333C9.49984 7.005 8.82817 6.33333 7.99984 6.33333ZM12.8332 6.33333C12.0048 6.33333 11.3332 7.005 11.3332 7.83333V13.1667C11.3332 13.995 12.0048 14.6667 12.8332 14.6667C13.6615 14.6667 14.3332 13.995 14.3332 13.1667V7.83333C14.3332 7.005 13.6615 6.33333 12.8332 6.33333Z" fill="#5D6588"/>
</svg>
