<svg width="16" height="16" viewBox="0 0 16 16" fill="none" xmlns="http://www.w3.org/2000/svg">
<path d="M0 2V2.6V14H16V2H0ZM2.66667 3.2H13.3333C13.3333 3.51826 13.4738 3.82348 13.7239 4.04853C13.9739 4.27357 14.313 4.4 14.6667 4.4V11.6C14.313 11.6 13.9739 11.7264 13.7239 11.9515C13.4738 12.1765 13.3333 12.4817 13.3333 12.8H2.66667C2.66667 12.4817 2.52619 12.1765 2.27614 11.9515C2.02609 11.7264 1.68696 11.6 1.33333 11.6V4.4C1.68696 4.4 2.02609 4.27357 2.27614 4.04853C2.52619 3.82348 2.66667 3.51826 2.66667 3.2ZM7.84375 4.4V5.19805C7.34775 5.24365 6.95098 5.40486 6.65365 5.68086C6.35631 5.95686 6.20703 6.30778 6.20703 6.73438C6.20703 6.98878 6.2487 7.20537 6.33203 7.38477C6.41536 7.56417 6.53604 7.722 6.69271 7.8582C6.84937 7.9944 7.03594 8.1136 7.2526 8.2168C7.4686 8.32 7.70494 8.42303 7.96094 8.52383C8.21627 8.62463 8.39409 8.73092 8.49609 8.84492C8.59809 8.95832 8.64974 9.11564 8.64974 9.31484C8.64974 9.49424 8.59809 9.63412 8.49609 9.73672C8.39476 9.83872 8.25546 9.89023 8.07813 9.89023C7.83479 9.89023 7.64763 9.81523 7.51563 9.66523C7.38429 9.51523 7.31901 9.29638 7.31901 9.00898H6C6 9.53038 6.1524 9.95132 6.45573 10.2699C6.75973 10.5891 7.19566 10.7777 7.76432 10.8359V11.6H8.38672V10.8395C8.87472 10.7939 9.26094 10.6349 9.54427 10.3625C9.82694 10.0907 9.96875 9.73921 9.96875 9.30781C9.96875 9.05341 9.9246 8.83453 9.83594 8.65273C9.74727 8.47153 9.62411 8.31315 9.46745 8.17695C9.31145 8.04075 9.12549 7.91873 8.91016 7.81133C8.69482 7.70393 8.46663 7.60038 8.22396 7.50078C7.98063 7.40118 7.80465 7.29652 7.69531 7.18672C7.58598 7.07692 7.52995 6.92918 7.52995 6.74258C7.52995 6.55838 7.57784 6.41398 7.67318 6.30898C7.76851 6.20398 7.90155 6.15195 8.07422 6.15195C8.26689 6.15195 8.41683 6.22306 8.52083 6.36406C8.62483 6.50506 8.67708 6.70595 8.67708 6.96875H10C10 6.48935 9.86381 6.09421 9.59115 5.78281C9.31848 5.47141 8.94284 5.28108 8.46484 5.21328V4.4H7.84375ZM2.66667 7.4V8.6H4.66667V7.4H2.66667ZM11.3333 7.4V8.6H13.3333V7.4H11.3333Z" fill="#C0C2CF"/>
</svg>
