<svg width="363" height="223" viewBox="0 0 363 223" fill="none" xmlns="http://www.w3.org/2000/svg">
<path opacity="0.8" fill-rule="evenodd" clip-rule="evenodd" d="M72.8851 41.6319C76.6179 29.8913 80.0916 22.5815 83.3008 19.6995C92.188 11.7231 104.476 16.0642 107.088 16.686C116.265 18.8761 113.281 4.46369 121.155 1.53415C126.402 -0.417942 130.718 1.96826 134.104 8.69275C137.102 2.41917 141.671 -0.454351 147.811 0.0581781C157.022 0.833974 160.245 31.7846 172.902 25.0097C185.561 18.232 201.081 16.6832 207.71 26.7545C209.143 28.9335 209.692 25.553 219.438 14.0113C229.183 2.46678 238.901 -2.6193 258.837 4.1024C267.902 7.15517 275.356 15.4313 281.209 28.9278C281.209 48.1911 295.453 59.5956 323.936 63.1329C366.666 68.4402 333.499 114.145 281.209 127.529C228.916 140.917 108.524 148.143 43.1917 114.321C-0.363041 91.7785 9.53474 67.5468 72.8823 41.6319H72.8851Z" fill="url(#paint0_linear_137_5395)"/>
<path opacity="0.675" fill-rule="evenodd" clip-rule="evenodd" d="M313.038 216.351C253.801 231.133 51.6028 214.225 30.0816 206.504C19.6067 202.742 10.1649 195.671 1.75915 185.286C0.818349 184.124 0.227 182.722 0.0534307 181.241C-0.120138 179.759 0.131159 178.259 0.778282 176.914C1.4254 175.568 2.44194 174.433 3.71042 173.638C4.9789 172.843 6.44756 172.421 7.94667 172.422H361.277C368.611 191.853 352.531 206.495 313.038 216.351Z" fill="url(#paint1_linear_137_5395)"/>
<path d="M240.483 145.09L213.54 113.745C212.903 112.997 212.111 112.394 211.219 111.979C210.326 111.563 209.354 111.344 208.369 111.336H150.435C148.447 111.336 146.558 112.243 145.263 113.745L118.32 145.09V162.298H240.483V145.09Z" fill="url(#paint2_linear_137_5395)"/>
<path d="M232.849 162.934L209.267 135.632C208.697 134.988 207.994 134.473 207.206 134.122C206.418 133.772 205.564 133.594 204.701 133.602H154.103C152.366 133.602 150.669 134.319 149.537 135.632L125.955 162.934V177.929H232.849V162.934Z" fill="url(#paint3_linear_137_5395)"/>
<path d="M240.483 182.021C240.483 184.41 239.402 186.558 237.696 187.998L237.35 188.278C235.997 189.298 234.346 189.849 232.649 189.846H126.157C125.195 189.846 124.274 189.672 123.424 189.353L123.002 189.185C121.609 188.568 120.425 187.563 119.594 186.291C118.763 185.019 118.321 183.535 118.32 182.018V145.281H147.96C151.234 145.281 153.872 147.962 153.872 151.213V151.255C153.872 154.51 156.541 157.134 159.814 157.134H198.989C200.563 157.132 202.072 156.511 203.185 155.404C204.299 154.298 204.927 152.798 204.932 151.233C204.932 147.967 207.572 145.281 210.843 145.281H240.486L240.483 182.021Z" fill="url(#paint4_linear_137_5395)"/>
<defs>
<linearGradient id="paint0_linear_137_5395" x1="187.714" y1="103.486" x2="187.714" y2="-24.4599" gradientUnits="userSpaceOnUse">
<stop stop-color="#DEDEDE" stop-opacity="0.37"/>
<stop offset="1" stop-color="#A9A9A9" stop-opacity="0.3"/>
</linearGradient>
<linearGradient id="paint1_linear_137_5395" x1="181.5" y1="222.214" x2="181.5" y2="162.625" gradientUnits="userSpaceOnUse">
<stop stop-color="white" stop-opacity="0.6"/>
<stop offset="1" stop-color="#919191" stop-opacity="0.15"/>
</linearGradient>
<linearGradient id="paint2_linear_137_5395" x1="179.402" y1="111.336" x2="179.402" y2="134.243" gradientUnits="userSpaceOnUse">
<stop stop-color="#1EFCF1"/>
<stop offset="1" stop-color="#416FDC"/>
</linearGradient>
<linearGradient id="paint3_linear_137_5395" x1="193.667" y1="177.929" x2="193.667" y2="131.245" gradientUnits="userSpaceOnUse">
<stop stop-color="#DCE9FF"/>
<stop offset="1" stop-color="#B6CFFF"/>
</linearGradient>
<linearGradient id="paint4_linear_137_5395" x1="179.403" y1="145.281" x2="179.403" y2="189.846" gradientUnits="userSpaceOnUse">
<stop stop-color="#7CA5F7"/>
<stop offset="1" stop-color="#C4D6FC"/>
</linearGradient>
</defs>
</svg>
