<svg width="12" height="13" viewBox="0 0 12 13" fill="none" xmlns="http://www.w3.org/2000/svg">
<path d="M6 0.5C2.6916 0.5 0 3.19164 0 6.50004C0 9.80844 2.6916 12.5 6 12.5C9.3084 12.5 12 9.80844 12 6.50004C12 3.19164 9.3084 0.5 6 0.5ZM6 11.4091C3.29309 11.4091 1.09091 9.20691 1.09091 6.50004C1.09091 3.79316 3.29309 1.59091 6 1.59091C8.70691 1.59091 10.9091 3.79316 10.9091 6.50004C10.9091 9.20691 8.70687 11.4091 6 11.4091Z" fill="#0074FF"/>
<path d="M5.99959 3.0459C5.59864 3.0459 5.27246 3.3723 5.27246 3.7735C5.27246 4.17434 5.59864 4.50044 5.99959 4.50044C6.40053 4.50044 6.72672 4.17434 6.72672 3.7735C6.72672 3.3723 6.40053 3.0459 5.99959 3.0459Z" fill="#0074FF"/>
<path d="M5.99956 5.59082C5.69832 5.59082 5.4541 5.83504 5.4541 6.13627V9.409C5.4541 9.71024 5.69832 9.95446 5.99956 9.95446C6.30079 9.95446 6.54501 9.71024 6.54501 9.409V6.13627C6.54501 5.83504 6.30079 5.59082 5.99956 5.59082Z" fill="#0074FF"/>
</svg>
