<svg width="11" height="15" viewBox="0 0 11 15" fill="none" xmlns="http://www.w3.org/2000/svg">
<path d="M1.56036 9.26651L5.09567 12.8018L8.63098 9.26651C8.98633 8.91116 9.56036 8.91116 9.91572 9.26651C10.2711 9.62187 10.2711 10.1959 9.91572 10.5513L5.73348 14.7335C5.37813 15.0888 4.8041 15.0888 4.44875 14.7335L0.266515 10.5513C-0.0888383 10.1959 -0.0888383 9.62187 0.266515 9.26651C0.621868 8.92027 1.20501 8.91116 1.56036 9.26651Z" fill="#107DEF"/>
<path d="M8.62176 5.73349L5.08646 2.19818L1.55115 5.73348C1.1958 6.08884 0.621764 6.08884 0.266412 5.73348C-0.0889415 5.37813 -0.0889415 4.8041 0.266412 4.44875L4.44864 0.266514C4.804 -0.0888386 5.37803 -0.0888385 5.73338 0.266514L9.91561 4.44875C10.271 4.8041 10.271 5.37813 9.91561 5.73349C9.56026 6.07973 8.97712 6.08884 8.62176 5.73349Z" fill="#9D9FA7"/>
</svg>
