<svg width="80" height="80" viewBox="0 0 80 80" fill="none" xmlns="http://www.w3.org/2000/svg">
<path fill-rule="evenodd" clip-rule="evenodd" d="M40 80C62.0914 80 80 62.0914 80 40C80 17.9086 62.0914 0 40 0C17.9086 0 0 17.9086 0 40C0 62.0914 17.9086 80 40 80Z" fill="#107DEF"/>
<path fill-rule="evenodd" clip-rule="evenodd" d="M25.6786 40.2679L33.0402 47.813L55.3214 24.9995C56.6216 23.6668 58.7347 23.6668 60.0349 24.9995C61.3217 26.3183 61.3217 28.4411 60.0349 29.76L35.4082 55.0005C34.108 56.3332 31.9949 56.3332 30.6947 55.0005L20.9651 45.0284C19.6783 43.7095 19.6783 41.5867 20.9651 40.2679C22.2653 38.9352 24.3784 38.9352 25.6786 40.2679Z" fill="white"/>
</svg>
