<svg width="45" height="45" viewBox="0 0 45 45" fill="none" xmlns="http://www.w3.org/2000/svg">
<g clip-path="url(#clip0_645_5319)">
<path d="M40 0.5H5C2.51472 0.5 0.5 2.51472 0.5 5V40C0.5 42.4853 2.51472 44.5 5 44.5H40C42.4853 44.5 44.5 42.4853 44.5 40V5C44.5 2.51472 42.4853 0.5 40 0.5Z" stroke="#34384C"/>
<path d="M27.0004 13C25.416 13 23.9733 13.2284 22.9008 13.6127C22.3621 13.8048 21.9259 14.0269 21.5873 14.3119C21.2502 14.5986 20.9998 14.9718 20.9998 15.4002C20.9998 15.479 21.0093 15.5625 21.025 15.6381C21.0061 15.6885 20.9967 15.7452 20.9998 15.8003V18.2005C20.9998 18.2793 21.0093 18.3627 21.025 18.4368C21.0061 18.4887 20.9967 18.5454 20.9998 18.6005V19.9251C20.3745 19.8416 19.7036 19.7991 19.0012 19.7991C17.4168 19.7991 15.9741 20.0275 14.9 20.4117C14.3629 20.6039 13.9251 20.826 13.5881 21.1126C13.251 21.3977 13.0006 21.7709 13.0006 22.1993C13.0006 22.2796 13.01 22.3615 13.0258 22.4371C13.0069 22.4891 12.9974 22.5458 13.0006 22.5994V24.9996C13.0006 25.0799 13.01 25.1618 13.0258 25.2374C13.0069 25.2894 12.9974 25.3445 13.0006 25.3996V27.7999C13.0006 27.8786 13.01 27.9621 13.0258 28.0377C13.0069 28.0881 12.9974 28.1448 13.0006 28.1999V30.6001C13.0006 31.027 13.251 31.4018 13.5881 31.6869C13.9251 31.9735 14.3629 32.194 14.9 32.3877C15.9741 32.7704 17.4152 32.9988 19.0012 32.9988C20.5856 32.9988 22.0267 32.7704 23.1008 32.3877C23.6379 32.194 24.0757 31.9735 24.4127 31.6869C24.7498 31.4018 25.0002 31.027 25.0002 30.6001V28.874C25.627 28.9575 26.2948 29 27.0004 29C28.5864 29 30.0275 28.77 31.1 28.3873C31.6371 28.1952 32.0749 27.9731 32.4119 27.6865C32.7506 27.4014 32.9994 27.0281 32.9994 26.5998V24.1995C33.0026 24.1444 32.9931 24.0893 32.9758 24.0373C32.99 23.9617 32.9994 23.8798 32.9994 23.7995V21.3992C33.0026 21.3457 32.9931 21.289 32.9758 21.237C32.99 21.163 32.9994 21.0795 32.9994 20.9992V18.6005C33.0026 18.5454 32.9931 18.4887 32.9758 18.4368C32.99 18.3627 32.9994 18.2793 32.9994 18.2005V15.8003C32.9978 15.7436 32.9852 15.6885 32.9632 15.6381C32.9805 15.5609 32.9994 15.4806 32.9994 15.4002C32.9994 14.9718 32.7506 14.5986 32.4119 14.3119C32.0749 14.0269 31.6371 13.8048 31.1 13.6127C30.0275 13.2284 28.5848 13 27.0004 13ZM27.0004 13.8001C28.5076 13.8001 29.8715 14.0221 30.8244 14.3623C31.3016 14.5324 31.6717 14.7325 31.9001 14.9246C32.1284 15.1167 32.1993 15.2742 32.1993 15.4002C32.1993 15.5247 32.1284 15.6822 31.9001 15.8743C31.6717 16.0664 31.3016 16.2665 30.8244 16.4381C29.8715 16.7783 28.5076 17.0004 27.0004 17.0004C25.4932 17.0004 24.1277 16.7783 23.1748 16.4381C22.6992 16.2665 22.3291 16.0664 22.1007 15.8743C21.8723 15.6822 21.7999 15.5247 21.7999 15.4002C21.7999 15.2742 21.8723 15.1167 22.1007 14.9246C22.3291 14.7325 22.6992 14.5324 23.1748 14.3623C24.1277 14.0221 25.4932 13.8001 27.0004 13.8001ZM21.7999 16.6382C22.1054 16.8492 22.4661 17.0335 22.9008 17.1878C23.9733 17.5721 25.416 17.8005 27.0004 17.8005C28.5848 17.8005 30.0275 17.5721 31.1 17.1878C31.5347 17.0335 31.8954 16.8492 32.1993 16.6382V18.2005C32.1993 18.3249 32.1284 18.4824 31.9001 18.6746C31.6717 18.8667 31.3016 19.0667 30.8244 19.2368C29.8715 19.5786 28.5076 19.7991 27.0004 19.7991C25.4932 19.7991 24.1277 19.5786 23.1748 19.2368C22.6992 19.0667 22.3291 18.8667 22.1007 18.6746C21.8723 18.4824 21.7999 18.3249 21.7999 18.2005V16.6382ZM21.7999 19.4368C22.1054 19.6495 22.4661 19.8322 22.9008 19.9881C23.9733 20.3724 25.4144 20.5992 27.0004 20.5992C28.5864 20.5992 30.0275 20.3724 31.1 19.9881C31.5347 19.8322 31.8954 19.6495 32.1993 19.4368V20.9992C32.1993 21.1252 32.1284 21.2827 31.9001 21.4748C31.6717 21.667 31.3016 21.867 30.8244 22.0371C29.8715 22.3773 28.5076 22.5994 27.0004 22.5994C26.2806 22.5994 25.5892 22.5505 24.9624 22.4623C24.9624 22.4545 24.9624 22.445 24.9624 22.4371C24.9797 22.36 25.0002 22.2812 25.0002 22.1993C25.0002 21.7709 24.7498 21.3977 24.4127 21.1126C24.0757 20.826 23.6379 20.6039 23.1008 20.4117C22.7118 20.2732 22.2739 20.1582 21.7999 20.0621V19.4368ZM19.0012 20.5992C20.5084 20.5992 21.8723 20.8212 22.8252 21.163C23.3024 21.3331 23.6725 21.5331 23.9009 21.7253C24.1277 21.9174 24.2001 22.0749 24.2001 22.1993C24.2001 22.3253 24.1277 22.4828 23.9009 22.675C23.6725 22.8671 23.3024 23.0671 22.8252 23.2372C21.8723 23.5774 20.5084 23.7995 19.0012 23.7995C17.4924 23.7995 16.1285 23.5774 15.1756 23.2372C14.6984 23.0671 14.3283 22.8671 14.0999 22.675C13.8731 22.4828 13.8007 22.3253 13.8007 22.1993C13.8007 22.0749 13.8731 21.9174 14.0999 21.7253C14.3283 21.5331 14.6984 21.3331 15.1756 21.163C16.1285 20.8212 17.4924 20.5992 19.0012 20.5992ZM32.1993 22.2371V23.7995C32.1993 23.9255 32.1284 24.083 31.9001 24.2751C31.6717 24.4673 31.3016 24.6673 30.8244 24.8374C29.8715 25.1776 28.5076 25.3996 27.0004 25.3996C26.2822 25.3996 25.5987 25.3398 24.975 25.25C24.9703 25.25 24.9671 25.25 24.9624 25.25C24.964 25.2453 24.9608 25.2421 24.9624 25.2374C24.9797 25.1602 25.0002 25.0815 25.0002 24.9996V23.275C25.6239 23.3553 26.298 23.3994 27.0004 23.3994C28.5864 23.3994 30.0275 23.1711 31.1 22.7868C31.5347 22.6324 31.8954 22.4497 32.1993 22.2371ZM13.8007 23.4372C14.1046 23.6499 14.4669 23.8326 14.9 23.9869C15.9741 24.3712 17.4168 24.5996 19.0012 24.5996C20.584 24.5996 22.0267 24.3712 23.1008 23.9869C23.5339 23.8326 23.8961 23.6499 24.2001 23.4372V24.9996C24.2001 25.124 24.1277 25.2831 23.9009 25.4752C23.6725 25.6674 23.3024 25.8674 22.8252 26.0375C21.8723 26.3777 20.5084 26.5998 19.0012 26.5998C17.4924 26.5998 16.1285 26.3777 15.1756 26.0375C14.6984 25.8674 14.3283 25.6674 14.0999 25.4752C13.8731 25.2831 13.8007 25.124 13.8007 24.9996V23.4372ZM32.1993 25.0374V26.5998C32.1993 26.7242 32.1284 26.8817 31.9001 27.0754C31.6717 27.2675 31.3016 27.4676 30.8244 27.6377C29.8715 27.9778 28.5076 28.1999 27.0004 28.1999C26.2759 28.1999 25.5908 28.1401 24.9624 28.0503C24.9624 28.0456 24.9624 28.0424 24.9624 28.0377C24.9797 27.9605 25.0002 27.8802 25.0002 27.7999V26.0753C25.6255 26.1572 26.2995 26.1997 27.0004 26.1997C28.5864 26.1997 30.0275 25.9698 31.1 25.5871C31.5347 25.4327 31.8954 25.25 32.1993 25.0374ZM13.8007 26.2375C14.1046 26.4501 14.4669 26.6328 14.9 26.7872C15.9741 27.1699 17.4152 27.3998 19.0012 27.3998C20.5856 27.3998 22.0267 27.1699 23.1008 26.7872C23.5339 26.6328 23.8961 26.4501 24.2001 26.2375V27.7999C24.2001 27.9243 24.1277 28.0818 23.9009 28.2739C23.6725 28.4661 23.3024 28.6661 22.8252 28.8378C21.8723 29.178 20.5084 29.4 19.0012 29.4C17.4924 29.4 16.1285 29.178 15.1756 28.8378C14.6984 28.6661 14.3283 28.4661 14.0999 28.2739C13.8731 28.0818 13.8007 27.9243 13.8007 27.7999V26.2375ZM13.8007 29.0378C14.1046 29.2488 14.4669 29.4331 14.9 29.5874C15.9741 29.9702 17.4152 30.2001 19.0012 30.2001C20.5856 30.2001 22.0267 29.9702 23.1008 29.5874C23.5339 29.4331 23.8961 29.2488 24.2001 29.0378V30.6001C24.2001 30.7246 24.1277 30.8821 23.9009 31.0742C23.6725 31.2664 23.3024 31.4664 22.8252 31.6365C21.8723 31.9782 20.5084 32.1987 19.0012 32.1987C17.4924 32.1987 16.1285 31.9782 15.1756 31.6365C14.6984 31.4664 14.3283 31.2664 14.0999 31.0742C13.8731 30.8821 13.8007 30.7246 13.8007 30.6001V29.0378Z" fill="#0074FF"/>
</g>
<defs>
<clipPath id="clip0_645_5319">
<rect width="45" height="45" fill="white"/>
</clipPath>
</defs>
</svg>
