<svg width="20" height="20" viewBox="0 0 20 20" fill="none" xmlns="http://www.w3.org/2000/svg">
<g clip-path="url(#clip0_589_8304)">
<path d="M10 20C15.5228 20 20 15.5228 20 10C20 4.47715 15.5228 0 10 0C4.47715 0 0 4.47715 0 10C0 15.5228 4.47715 20 10 20Z" fill="white"/>
<path d="M15.2523 6.21523L16.25 5.26183V5.05273H12.7943L10.3318 11.1811L7.53068 5.05273H3.90795V5.26183L5.07273 6.6641C5.12833 6.71548 5.17123 6.77907 5.19805 6.84987C5.22487 6.92067 5.23488 6.99673 5.22727 7.07205V12.5834C5.24466 12.6815 5.23848 12.7823 5.20924 12.8776C5.18 12.9728 5.12853 13.0597 5.05909 13.1311L3.75 14.7209V14.9277H7.47159V14.7186L6.15909 13.1277C6.08893 13.0564 6.03613 12.97 6.0048 12.875C5.97346 12.78 5.96443 12.679 5.97841 12.58V7.81637L9.24432 14.93H9.625L12.433 7.81637V13.4834C12.433 13.6323 12.433 13.663 12.3352 13.7618L11.325 14.7391V14.9482H16.2273V14.7391L15.2534 13.7857C15.2109 13.754 15.1779 13.7114 15.1578 13.6623C15.1378 13.6132 15.1316 13.5596 15.1398 13.5073V6.49364C15.1314 6.44128 15.1376 6.38764 15.1577 6.33854C15.1777 6.28945 15.2108 6.2468 15.2534 6.21523H15.2523Z" fill="#1D1F25"/>
</g>
<defs>
<clipPath id="clip0_589_8304">
<rect width="20" height="20" fill="white"/>
</clipPath>
</defs>
</svg>
