<svg width="20" height="20" viewBox="0 0 20 20" fill="none" xmlns="http://www.w3.org/2000/svg">
<g clip-path="url(#clip0_1121_1528)">
<path fill-rule="evenodd" clip-rule="evenodd" d="M10 20C15.5228 20 20 15.5228 20 10C20 4.47715 15.5228 0 10 0C4.47715 0 0 4.47715 0 10C0 15.5228 4.47715 20 10 20ZM15.409 6H13.8756L11.3488 8.87585L9.16414 6H6L9.78065 10.9223L6.19747 15H7.73179L10.4973 11.8537L12.9142 15H16L12.059 9.81231L15.409 6ZM14.1871 14.0862H13.3374L7.79066 6.86585H8.70245L14.1871 14.0862Z" fill="white"/>
</g>
<defs>
<clipPath id="clip0_1121_1528">
<rect width="20" height="20" fill="white"/>
</clipPath>
</defs>
</svg>
