<svg width="18" height="18" viewBox="0 0 18 18" fill="none" xmlns="http://www.w3.org/2000/svg">
<path d="M15.9834 3.04513C15.953 2.48901 15.5107 2.04678 14.9546 2.01643C13.8325 1.95513 11.6367 2.01476 9.53701 3.10077C8.46664 3.65443 7.33461 4.59311 6.4312 5.67615C6.42007 5.68949 6.40924 5.70291 6.3982 5.71629L4.34796 5.87466C4.01049 5.90075 3.7099 6.07763 3.52325 6.35993L2.1245 8.47557C1.98295 8.68967 1.96044 8.95761 2.06427 9.1923C2.16812 9.42702 2.38151 9.59059 2.63512 9.62989L4.36245 9.89742C4.35636 9.931 4.35023 9.96455 4.34463 9.99813C4.28712 10.3421 4.40109 10.6958 4.64954 10.9442L7.05557 13.3503C7.26155 13.5562 7.53988 13.6698 7.82507 13.6698C7.88381 13.6698 7.94287 13.6649 8.00166 13.6551C8.03524 13.6495 8.06879 13.6434 8.10237 13.6373L8.3699 15.3647C8.40919 15.6183 8.57276 15.8317 8.80743 15.9355C8.90507 15.9787 9.0084 16.0001 9.11127 16.0001C9.25573 16 9.39917 15.958 9.52419 15.8753L11.6398 14.4765C11.9222 14.2899 12.099 13.9893 12.125 13.6518L12.2834 11.6016C12.2968 11.5906 12.3102 11.5797 12.3236 11.5686C13.4066 10.6652 14.3454 9.53317 14.899 8.46277C15.9851 6.36302 16.0446 4.16718 15.9834 3.04513V3.04513ZM11.1874 13.7922L9.16369 15.1302L8.90294 13.4468C9.75825 13.1953 10.6043 12.7926 11.4104 12.253L11.3072 13.5886C11.3008 13.6719 11.2571 13.7462 11.1874 13.7922V13.7922ZM7.63561 12.7702L5.22955 10.3641C5.16816 10.3027 5.13978 10.2165 5.1537 10.1334C5.22523 9.70563 5.33638 9.29845 5.47398 8.91488L9.08412 12.525C8.62343 12.69 8.21079 12.7885 7.86639 12.8461C7.78316 12.8599 7.697 12.8316 7.63561 12.7702V12.7702ZM4.41115 6.69254L5.74673 6.58937C5.20713 7.39544 4.80436 8.24154 4.55288 9.09685L2.86949 8.83613L4.20752 6.81236C4.25363 6.74263 4.32786 6.69897 4.41115 6.69254V6.69254ZM11.7982 10.9386C11.1356 11.4913 10.4924 11.8911 9.89951 12.1804L5.81925 8.10011C6.19818 7.32618 6.66064 6.68171 7.06112 6.20161C7.89715 5.19932 8.93695 4.33469 9.91392 3.82938C11.8409 2.83261 13.8712 2.77894 14.91 2.83548C15.0475 2.84298 15.1568 2.95232 15.1643 3.08984C15.2209 4.12857 15.1671 6.15884 14.1704 8.0859C13.6651 9.06283 12.8005 10.1026 11.7982 10.9386Z" fill="#3DC903"/>
<path d="M11.59 8.45985C12.1151 8.45979 12.6404 8.25991 13.0401 7.86017C13.4275 7.47285 13.6407 6.95786 13.6407 6.41011C13.6407 5.86236 13.4274 5.34737 13.0401 4.96004C12.2405 4.16043 10.9395 4.16048 10.14 4.96004C9.75262 5.34737 9.53931 5.86236 9.53931 6.41011C9.53931 6.95786 9.75264 7.47285 10.14 7.86017C10.5398 8.25999 11.0648 8.4599 11.59 8.45985ZM10.72 5.54006C10.9598 5.30017 11.2749 5.18024 11.59 5.18024C11.9051 5.18024 12.2202 5.30017 12.46 5.54006C12.6924 5.77245 12.8204 6.08144 12.8204 6.41008C12.8204 6.73872 12.6924 7.04774 12.46 7.28013C11.9803 7.75988 11.1997 7.75985 10.7199 7.28013C10.4875 7.04774 10.3595 6.73875 10.3595 6.41011C10.3595 6.08146 10.4876 5.77245 10.72 5.54006Z" fill="#3DC903"/>
<path d="M2.41838 13.5374C2.52335 13.5374 2.62833 13.4973 2.70839 13.4172L4.0475 12.0781C4.20768 11.9179 4.20768 11.6582 4.0475 11.4981C3.88734 11.3379 3.62763 11.3379 3.46745 11.4981L2.12837 12.8372C1.96819 12.9973 1.96819 13.257 2.12837 13.4172C2.20844 13.4973 2.31341 13.5374 2.41838 13.5374V13.5374Z" fill="#3DC903"/>
<path d="M5.2747 12.7251C5.11455 12.5649 4.85484 12.5649 4.69466 12.7251L2.12013 15.2997C1.95996 15.4598 1.95996 15.7195 2.12013 15.8797C2.20022 15.9598 2.30517 15.9998 2.41014 15.9998C2.51512 15.9998 2.62009 15.9598 2.70015 15.8797L5.27467 13.3052C5.43488 13.145 5.43488 12.8853 5.2747 12.7251V12.7251Z" fill="#3DC903"/>
<path d="M5.92189 13.9527L4.58278 15.2918C4.4226 15.4519 4.4226 15.7116 4.58278 15.8718C4.66287 15.9519 4.76784 15.992 4.87279 15.992C4.97773 15.992 5.08273 15.9519 5.1628 15.8718L6.5019 14.5327C6.66208 14.3725 6.66208 14.1128 6.5019 13.9527C6.34175 13.7925 6.08204 13.7925 5.92189 13.9527Z" fill="#3DC903"/>
</svg>
