<svg width="16" height="16" viewBox="0 0 16 16" fill="none" xmlns="http://www.w3.org/2000/svg">
<path d="M7.49015 6.68809V7.33164C7.49015 7.53603 7.53107 7.70752 7.61154 7.84111C7.72267 8.02549 7.90509 8.13115 8.11222 8.13115C8.31515 8.13115 8.51681 8.03232 8.71164 7.8376L10.8372 5.71201C11.3038 5.24531 11.3038 4.48594 10.8371 4.01924L8.71164 1.89365C8.51681 1.69883 8.31515 1.6001 8.11222 1.6001C7.80265 1.6001 7.49015 1.84736 7.49015 2.39961V2.98408C4.47238 3.1623 1.97414 5.47822 1.60285 8.51035C1.58205 8.67969 1.67834 8.8418 1.83703 8.90459C1.88195 8.92236 1.92873 8.93096 1.97492 8.93096C2.09191 8.93096 2.20539 8.87617 2.27765 8.77744C3.27355 7.4167 4.87257 6.6043 6.555 6.6043C6.86681 6.6043 7.18019 6.63242 7.49015 6.68809ZM2.68712 7.25478C3.50334 5.17021 5.53478 3.72305 7.86515 3.72305C8.07228 3.72305 8.24015 3.55518 8.24015 3.34805V2.48291L10.3069 4.54951C10.4811 4.72383 10.4811 5.00742 10.3069 5.18174L8.24015 7.24834V6.38311C8.24015 6.20928 8.12072 6.0582 7.95148 6.01816C7.49191 5.90947 7.02199 5.8543 6.555 5.8543C5.5882 5.8543 4.62648 6.08828 3.77375 6.53105C3.38732 6.73164 3.02248 6.97519 2.68712 7.25478Z" fill="#F84960"/>
<path d="M12.5564 7.09566C12.3977 7.03287 12.2166 7.08521 12.1158 7.2229C11.1199 8.58355 9.52097 9.39595 7.83845 9.39595C7.52673 9.39595 7.21335 9.36783 6.9033 9.31216V8.66861C6.9033 8.11636 6.59089 7.8691 6.28123 7.8691C6.0783 7.8691 5.87664 7.96792 5.68191 8.16275L3.55632 10.2882C3.08962 10.7549 3.08962 11.5143 3.55632 11.9811L5.68191 14.1066C5.87664 14.3014 6.0783 14.4002 6.28123 14.4002C6.5908 14.4002 6.9033 14.1529 6.9033 13.6006V13.0162C9.92117 12.8379 12.4193 10.522 12.7906 7.48999C12.8114 7.32056 12.7151 7.15845 12.5564 7.09566ZM6.5283 12.2772C6.32117 12.2772 6.1533 12.4451 6.1533 12.6522V13.5173L4.08669 11.4508C3.91238 11.2764 3.91238 10.9928 4.0866 10.8186L6.1533 8.75191V9.61714C6.1533 9.79107 6.27283 9.94214 6.44207 9.98218C6.90173 10.0908 7.37156 10.146 7.83845 10.146C8.80535 10.146 9.76707 9.91197 10.6197 9.46929C11.0061 9.26861 11.371 9.02515 11.7063 8.74556C10.8901 10.83 8.85867 12.2772 6.5283 12.2772Z" fill="#F84960"/>
</svg>
