<svg width="13" height="16" viewBox="0 0 13 16" fill="none" xmlns="http://www.w3.org/2000/svg">
<path d="M6.40003 1.6001C3.61758 1.6001 1.35388 3.86377 1.35388 6.64625C1.35388 8.38032 2.23318 9.9128 3.56926 10.8215V14.0308C3.56926 14.1561 3.63278 14.2729 3.73801 14.3409C3.84318 14.4089 3.97573 14.4189 4.09001 14.3675L6.40003 13.3281L8.71006 14.3676C8.75843 14.3893 8.81006 14.4001 8.86153 14.4001C8.93163 14.4001 9.00138 14.3801 9.06206 14.3409C9.16726 14.2729 9.23081 14.1561 9.23081 14.0309V10.8215C10.5669 9.91282 11.4462 8.38035 11.4462 6.64627C11.4462 3.86377 9.18248 1.6001 6.40003 1.6001ZM8.49233 13.4598L6.55153 12.5865C6.50336 12.5648 6.45168 12.5539 6.40003 12.5539C6.34838 12.5539 6.29671 12.5648 6.24853 12.5865L4.30773 13.4598V11.2389C4.49331 11.3235 4.68378 11.3962 4.87786 11.4576C4.88886 11.4611 4.89983 11.4646 4.91088 11.468C4.93566 11.4757 4.96051 11.483 4.98538 11.4902C5.00381 11.4956 5.02223 11.501 5.04071 11.5062C5.06078 11.5118 5.08093 11.5172 5.10108 11.5226C5.12458 11.5288 5.14813 11.535 5.17176 11.5409C5.18846 11.5451 5.20518 11.5492 5.22193 11.5532C5.24911 11.5597 5.27636 11.566 5.30371 11.5721C5.31788 11.5752 5.33208 11.5783 5.34628 11.5814C5.37623 11.5878 5.40628 11.5938 5.43646 11.5997C5.44873 11.6021 5.46101 11.6045 5.47331 11.6068C5.50526 11.6127 5.53733 11.6183 5.56948 11.6237C5.58051 11.6255 5.59153 11.6274 5.60258 11.6292C5.63576 11.6345 5.66908 11.6393 5.70251 11.644C5.71286 11.6454 5.72318 11.6469 5.73353 11.6483C5.76736 11.6528 5.80133 11.6568 5.83533 11.6606C5.84548 11.6617 5.85558 11.663 5.86573 11.6641C5.89966 11.6677 5.93371 11.6708 5.96783 11.6737C5.97818 11.6746 5.98848 11.6756 5.99886 11.6764C6.03248 11.6791 6.06626 11.6812 6.10008 11.6832C6.11093 11.6839 6.12173 11.6847 6.13263 11.6853C6.16681 11.6871 6.20111 11.6883 6.23546 11.6894C6.24581 11.6898 6.25608 11.6903 6.26643 11.6906C6.31083 11.6917 6.35538 11.6924 6.40008 11.6924C6.44476 11.6924 6.48931 11.6917 6.53371 11.6906C6.54406 11.6903 6.55433 11.6898 6.56468 11.6894C6.59903 11.6883 6.63333 11.6871 6.66751 11.6853C6.67836 11.6847 6.68918 11.6839 6.70006 11.6832C6.73388 11.6812 6.76766 11.6791 6.80128 11.6764C6.81166 11.6756 6.82196 11.6746 6.83231 11.6737C6.86643 11.6708 6.90048 11.6677 6.93441 11.6641C6.94456 11.663 6.95466 11.6618 6.96481 11.6606C6.99883 11.6568 7.03278 11.6528 7.06661 11.6483C7.07698 11.6469 7.08728 11.6454 7.09763 11.644C7.13103 11.6393 7.16436 11.6345 7.19756 11.6292C7.20861 11.6274 7.21961 11.6255 7.23066 11.6237C7.26281 11.6183 7.29488 11.6127 7.32683 11.6068C7.33913 11.6045 7.35141 11.6021 7.36368 11.5997C7.39383 11.5938 7.42388 11.5877 7.45386 11.5814C7.46808 11.5783 7.48226 11.5752 7.49643 11.5721C7.52378 11.566 7.55103 11.5597 7.57821 11.5532C7.59493 11.5492 7.61166 11.5451 7.62838 11.5409C7.65201 11.535 7.67553 11.5289 7.69906 11.5226C7.71921 11.5172 7.73936 11.5118 7.75943 11.5062C7.77791 11.501 7.79636 11.4956 7.81476 11.4902C7.83963 11.483 7.86451 11.4757 7.88926 11.468C7.90031 11.4646 7.91128 11.461 7.92228 11.4576C8.11636 11.3962 8.30683 11.3236 8.49241 11.239V13.4598H8.49233ZM7.80576 10.7182C7.79103 10.7233 7.77631 10.7284 7.76153 10.7333C7.73908 10.7408 7.71653 10.7482 7.69391 10.7553C7.66758 10.7636 7.64118 10.7715 7.61471 10.7793C7.59603 10.7848 7.57733 10.7903 7.55856 10.7955C7.52353 10.8053 7.48838 10.8146 7.45311 10.8235C7.43996 10.8268 7.42676 10.83 7.41358 10.8332C7.37906 10.8415 7.34438 10.8495 7.30963 10.857C7.30088 10.8589 7.29221 10.8609 7.28346 10.8627C7.23861 10.8721 7.19361 10.8808 7.14843 10.8887C7.14383 10.8895 7.13921 10.8902 7.13458 10.891C7.09388 10.8981 7.05306 10.9044 7.01216 10.9103C7.00293 10.9116 6.99371 10.9129 6.98443 10.9142C6.94081 10.9201 6.89711 10.9255 6.85326 10.9301C6.85161 10.9303 6.84996 10.9305 6.84831 10.9307C6.80241 10.9355 6.75633 10.9394 6.71021 10.9427C6.70021 10.9434 6.69016 10.9439 6.68013 10.9446C6.64426 10.9469 6.60838 10.9488 6.57241 10.9502C6.56018 10.9507 6.54796 10.9512 6.53573 10.9516C6.49056 10.953 6.44533 10.9539 6.40003 10.9539C6.35473 10.9539 6.30951 10.953 6.26433 10.9516C6.25208 10.9512 6.23986 10.9507 6.22766 10.9502C6.19168 10.9487 6.15581 10.9469 6.11993 10.9446C6.10991 10.9439 6.09988 10.9434 6.08986 10.9426C6.04373 10.9393 5.99768 10.9354 5.95176 10.9307C5.95011 10.9305 5.94846 10.9303 5.94681 10.9301C5.90296 10.9255 5.85926 10.92 5.81563 10.9141C5.80641 10.9129 5.79718 10.9116 5.78793 10.9102C5.74701 10.9044 5.70618 10.898 5.66548 10.891C5.66088 10.8902 5.65626 10.8895 5.65163 10.8887C5.60646 10.8807 5.56143 10.872 5.51661 10.8626C5.50788 10.8608 5.49918 10.8588 5.49043 10.8569C5.45568 10.8495 5.42101 10.8415 5.38648 10.8331C5.37328 10.8299 5.36008 10.8268 5.34696 10.8235C5.31168 10.8146 5.27653 10.8052 5.24151 10.7955C5.22273 10.7902 5.20403 10.7847 5.18536 10.7792C5.15891 10.7715 5.13248 10.7635 5.10613 10.7552C5.08351 10.7481 5.06098 10.7407 5.03851 10.7332C5.02371 10.7283 5.00898 10.7232 4.99428 10.7181C3.30718 10.1341 2.09233 8.52947 2.09233 6.64625C2.09233 4.271 4.02476 2.33855 6.40003 2.33855C8.77531 2.33855 10.7077 4.27097 10.7077 6.64625C10.7077 8.52947 9.49286 10.1341 7.80576 10.7182Z" fill="#2F55D1"/>
<path d="M8.59053 6.64629L9.28406 5.34279C9.34391 5.23037 9.34153 5.09504 9.27786 4.98477C9.21418 4.87449 9.09816 4.80477 8.97088 4.80037L7.49526 4.74924L6.71316 3.49689C6.64568 3.38889 6.52733 3.32324 6.39998 3.32324C6.27263 3.32324 6.15428 3.38889 6.08681 3.49689L5.30473 4.74924L3.82911 4.80037C3.70183 4.80477 3.58581 4.87449 3.52213 4.98477C3.45846 5.09504 3.45608 5.23037 3.51593 5.34279L4.20946 6.64629L3.51593 7.94979C3.45608 8.06222 3.45846 8.19754 3.52213 8.30782C3.58581 8.41809 3.70183 8.48782 3.82911 8.49222L5.30473 8.54334L6.08681 9.79569C6.15426 9.90369 6.27263 9.96934 6.39998 9.96934C6.52733 9.96934 6.64568 9.90369 6.71316 9.79569L7.49523 8.54334L8.97086 8.49222C9.09813 8.48782 9.21416 8.41809 9.27783 8.30782C9.34151 8.19754 9.34388 8.06222 9.28403 7.94979L8.59053 6.64629ZM7.27336 7.81212C7.15063 7.81637 7.03801 7.88139 6.97298 7.98557L6.39998 8.90309L5.82701 7.98559C5.76196 7.88142 5.64936 7.81642 5.52663 7.81214L4.44558 7.77467L4.95366 6.81972C5.01136 6.71129 5.01136 6.58129 4.95366 6.47287L4.44558 5.51792L5.52663 5.48044C5.64936 5.47619 5.76198 5.41117 5.82701 5.30699L6.39998 4.38952L6.97296 5.30702C7.03801 5.41119 7.15061 5.47619 7.27333 5.48047L8.35438 5.51794L7.84631 6.47289C7.78863 6.58132 7.78863 6.71134 7.84633 6.81974L8.35441 7.77469L7.27336 7.81212Z" fill="#2F55D1"/>
</svg>
