<svg width="16" height="16" viewBox="0 0 16 16" fill="none" xmlns="http://www.w3.org/2000/svg">
<path d="M3.46669 14.45H12.5334C13.002 14.45 13.3834 14.0687 13.3834 13.6V8.26667C13.3834 8.09185 13.2415 7.95 13.0667 7.95H2.93335C2.75854 7.95 2.61669 8.09185 2.61669 8.26667V13.6C2.61669 14.0687 2.99801 14.45 3.46669 14.45ZM3.25002 13.6V8.58333H12.75V13.6C12.75 13.7191 12.6524 13.8167 12.5334 13.8167H3.46669C3.34763 13.8167 3.25002 13.7191 3.25002 13.6Z" fill="#DB4EB4" stroke="#DB4EB4" stroke-width="0.1"/>
<path d="M2.39998 8.58301H13.6C14.0687 8.58301 14.45 8.20169 14.45 7.73301V6.13301C14.45 5.66433 14.0687 5.28301 13.6 5.28301H2.39998C1.93129 5.28301 1.54998 5.66433 1.54998 6.13301V7.73301C1.54998 8.20169 1.93129 8.58301 2.39998 8.58301ZM2.18331 6.13301C2.18331 6.01396 2.28092 5.91634 2.39998 5.91634H13.6C13.719 5.91634 13.8166 6.01396 13.8166 6.13301V7.73301C13.8166 7.85206 13.719 7.94967 13.6 7.94967H2.39998C2.28092 7.94967 2.18331 7.85206 2.18331 7.73301V6.13301Z" fill="#DB4EB4" stroke="#DB4EB4" stroke-width="0.1"/>
<path d="M7.68653 5.55551C7.68979 5.53327 7.84141 4.53574 8.3865 3.54238C8.93192 2.54841 9.87679 1.5501 11.4667 1.5501C12.1646 1.5501 12.6446 1.73876 12.9506 2.01491C13.2566 2.29107 13.3839 2.65052 13.3839 2.98196C13.3839 3.60347 12.9561 4.33833 12.0739 4.91541C11.1904 5.49337 9.84681 5.91676 8 5.91676C7.90843 5.91676 7.82092 5.8776 7.76056 5.80718L7.68653 5.55551ZM7.68653 5.55551C7.68653 5.55551 7.68653 5.5555 7.68653 5.5555L7.73535 5.56267L7.68653 5.55551ZM12.475 2.44325L12.4751 2.44331C12.6587 2.58091 12.7505 2.76152 12.7505 2.98196C12.7505 3.43142 12.3807 3.98206 11.6331 4.43486C10.8997 4.87911 9.81191 5.22252 8.38978 5.27588C8.49704 4.83848 8.73209 4.08979 9.18978 3.43851C9.66962 2.7557 10.3912 2.18343 11.4667 2.18343C11.9054 2.18343 12.2524 2.27583 12.475 2.44325Z" fill="#DB4EB4" stroke="#DB4EB4" stroke-width="0.1"/>
<path d="M8.31402 5.55551L8.31403 5.55555C8.32734 5.64681 8.30007 5.73814 8.24001 5.80717C8.17965 5.87759 8.09213 5.91676 8.00055 5.91676C6.15375 5.91676 4.81017 5.49337 3.92665 4.91541C3.04447 4.33833 2.61669 3.60347 2.61669 2.98196C2.61669 2.56375 2.80517 2.19175 3.14492 1.93665L8.31402 5.55551ZM8.31402 5.55551C8.31076 5.53327 8.15914 4.53574 7.61406 3.54238C7.06863 2.54841 6.12377 1.5501 4.53389 1.5501C3.96592 1.5501 3.48428 1.68173 3.14493 1.93665L8.31402 5.55551ZM3.25002 2.98196C3.25002 2.73914 3.3673 2.54207 3.58519 2.40349C3.80502 2.26367 4.12804 2.18343 4.53389 2.18343C5.62344 2.18343 6.34721 2.75473 6.82487 3.43672C7.28084 4.08774 7.51014 4.83688 7.61401 5.27643C6.1908 5.22315 5.10219 4.8797 4.36818 4.43533C3.62015 3.98246 3.25002 3.43168 3.25002 2.98196Z" fill="#DB4EB4" stroke="#DB4EB4" stroke-width="0.1"/>
<path d="M7.68334 14.133C7.68334 14.3078 7.82519 14.4497 8 14.4497C8.17482 14.4497 8.31667 14.3078 8.31667 14.133V5.59967C8.31667 5.42486 8.17482 5.28301 8 5.28301C7.82519 5.28301 7.68334 5.42486 7.68334 5.59967V14.133Z" fill="#DB4EB4" stroke="#DB4EB4" stroke-width="0.1"/>
</svg>
