<svg width="16" height="16" viewBox="0 0 16 16" fill="none" xmlns="http://www.w3.org/2000/svg">
<path d="M12.7177 7.59033V13.2809H3.29691V7.59033H2.41919V13.7197C2.41919 13.9621 2.61564 14.1586 2.85804 14.1586H13.1566C13.399 14.1586 13.5954 13.9621 13.5954 13.7197V7.59033H12.7177Z" fill="#DB4EB4"/>
<path d="M13.9611 4.29883H2.03883C1.79643 4.29883 1.59998 4.49528 1.59998 4.73768V7.60488C1.59998 7.84728 1.79643 8.04373 2.03883 8.04373H13.9611C14.2035 8.04373 14.3999 7.8474 14.3999 7.60488V4.73768C14.4 4.49528 14.2035 4.29883 13.9611 4.29883ZM13.5222 7.16618H2.4777V5.1767H13.5223V7.16618H13.5222Z" fill="#DB4EB4"/>
<path d="M8.43182 4.62658C8.40197 4.51278 7.67802 1.84131 5.56432 1.84131C4.64477 1.84131 3.89667 2.58941 3.89667 3.50896C3.89667 4.42851 4.63819 5.17661 5.54969 5.17661H8.00729C8.14319 5.17661 8.27164 5.11356 8.35472 5.00588C8.43779 4.89821 8.46619 4.75808 8.43182 4.62658ZM5.54972 4.29891C5.11497 4.29891 4.77439 3.95191 4.77439 3.50896C4.77439 3.08078 5.13617 2.71901 5.56434 2.71901C6.52734 2.71901 7.10399 3.66768 7.38122 4.29888H5.54972V4.29891Z" fill="#DB4EB4"/>
<path d="M10.4503 1.84131C8.3366 1.84131 7.61263 4.51278 7.58278 4.62658C7.54825 4.75808 7.57678 4.89823 7.65988 5.00591C7.74298 5.11358 7.87125 5.17663 8.0073 5.17663H10.4649C11.3764 5.17663 12.1179 4.42853 12.1179 3.50898C12.118 2.58941 11.3699 1.84131 10.4503 1.84131ZM10.4649 4.29891H8.63168C8.90685 3.66768 9.48175 2.71903 10.4505 2.71903C10.8786 2.71903 11.2404 3.08081 11.2404 3.50898C11.2404 3.95191 10.8998 4.29891 10.4649 4.29891Z" fill="#DB4EB4"/>
<path d="M8.44621 4.73779H7.56848V13.7197H8.44621V4.73779Z" fill="#DB4EB4"/>
</svg>
