<svg width="16" height="16" viewBox="0 0 16 16" fill="none" xmlns="http://www.w3.org/2000/svg">
<path d="M8.19998 7.2001H6.99998C6.89389 7.2001 6.79215 7.24224 6.71713 7.31726C6.64212 7.39227 6.59998 7.49401 6.59998 7.6001C6.59998 7.70618 6.64212 7.80793 6.71713 7.88294C6.79215 7.95795 6.89389 8.0001 6.99998 8.0001H7.59998C7.59998 8.10618 7.64212 8.20793 7.71713 8.28294C7.79215 8.35796 7.89389 8.4001 7.99998 8.4001C8.10606 8.4001 8.2078 8.35796 8.28282 8.28294C8.35783 8.20793 8.39998 8.10618 8.39998 8.0001V7.9821C8.69517 7.93042 8.96033 7.77015 9.14333 7.53283C9.32632 7.29551 9.41389 6.9983 9.38882 6.69968C9.36374 6.40105 9.22784 6.12261 9.00784 5.91912C8.78783 5.71564 8.49965 5.60183 8.19998 5.6001H7.79998C7.69389 5.6001 7.59215 5.55795 7.51713 5.48294C7.44212 5.40793 7.39998 5.30618 7.39998 5.2001C7.39998 5.09401 7.44212 4.99227 7.51713 4.91726C7.59215 4.84224 7.69389 4.8001 7.79998 4.8001H8.99998C9.10606 4.8001 9.2078 4.75795 9.28282 4.68294C9.35783 4.60793 9.39998 4.50618 9.39998 4.4001C9.39998 4.29401 9.35783 4.19227 9.28282 4.11726C9.2078 4.04224 9.10606 4.0001 8.99998 4.0001H8.39998C8.39998 3.89401 8.35783 3.79227 8.28282 3.71726C8.2078 3.64224 8.10606 3.6001 7.99998 3.6001C7.89389 3.6001 7.79215 3.64224 7.71713 3.71726C7.64212 3.79227 7.59998 3.89401 7.59998 4.0001V4.0181C7.30479 4.06978 7.03962 4.23004 6.85662 4.46737C6.67363 4.70469 6.58606 5.00189 6.61113 5.30052C6.63621 5.59915 6.77211 5.87759 6.99212 6.08107C7.21212 6.28456 7.5003 6.39836 7.79998 6.4001H8.19998C8.30606 6.4001 8.4078 6.44224 8.48282 6.51726C8.55783 6.59227 8.59998 6.69401 8.59998 6.8001C8.59998 6.90618 8.55783 7.00793 8.48282 7.08294C8.4078 7.15795 8.30606 7.2001 8.19998 7.2001Z" fill="#EFC500"/>
<path d="M13.2 5.60001H11.98C11.8809 4.61327 11.4189 3.6985 10.6834 3.0332C9.94802 2.3679 8.99168 1.99951 7.99998 1.99951C7.00827 1.99951 6.05193 2.3679 5.31651 3.0332C4.58108 3.6985 4.11902 4.61327 4.01998 5.60001H2.79998C2.48172 5.60001 2.17649 5.72644 1.95145 5.95148C1.7264 6.17653 1.59998 6.48175 1.59998 6.80001L1.59998 12.8C1.59998 13.1183 1.7264 13.4235 1.95145 13.6485C2.17649 13.8736 2.48172 14 2.79998 14H13.2C13.5182 14 13.8235 13.8736 14.0485 13.6485C14.2735 13.4235 14.4 13.1183 14.4 12.8V6.80001C14.4 6.48175 14.2735 6.17653 14.0485 5.95148C13.8235 5.72644 13.5182 5.60001 13.2 5.60001ZM11.458 8.00001C11.5537 8.01404 11.6411 8.0623 11.704 8.13585C11.7669 8.2094 11.801 8.30325 11.8 8.40001C11.8 8.5061 11.7578 8.60784 11.6828 8.68286C11.6078 8.75787 11.5061 8.80001 11.4 8.80001H10.854C11.0879 8.55958 11.2908 8.29082 11.458 8.00001ZM7.99998 2.80001C8.84867 2.80001 9.6626 3.13715 10.2627 3.73727C10.8628 4.33739 11.2 5.15132 11.2 6.00001C11.2012 6.49358 11.0868 6.98058 10.866 7.42201C10.5758 8.00519 10.1146 8.48593 9.54398 8.80001H6.45598C5.88533 8.48593 5.42412 8.00519 5.13398 7.42201C4.91318 6.98058 4.7988 6.49358 4.79998 6.00001C4.79998 5.15132 5.13712 4.33739 5.73723 3.73727C6.33735 3.13715 7.15128 2.80001 7.99998 2.80001V2.80001ZM4.54198 8.00001C4.70792 8.2906 4.90947 8.55934 5.14198 8.80001H4.59998C4.49389 8.80001 4.39215 8.75787 4.31713 8.68286C4.24212 8.60784 4.19998 8.5061 4.19998 8.40001C4.19936 8.29467 4.24032 8.19333 4.31398 8.11801C4.37538 8.05529 4.4553 8.01392 4.54198 8.00001V8.00001ZM13.6 12.8C13.6 12.9061 13.5578 13.0078 13.4828 13.0829C13.4078 13.1579 13.3061 13.2 13.2 13.2H2.79998C2.69389 13.2 2.59215 13.1579 2.51713 13.0829C2.44212 13.0078 2.39998 12.9061 2.39998 12.8V6.80001C2.39998 6.69393 2.44212 6.59218 2.51713 6.51717C2.59215 6.44216 2.69389 6.40001 2.79998 6.40001H4.01998C4.04688 6.69523 4.10727 6.98644 4.19998 7.26801C3.96591 7.35077 3.76328 7.50408 3.62 7.70682C3.47672 7.90956 3.39985 8.15175 3.39998 8.40001C3.39998 8.71827 3.5264 9.0235 3.75145 9.24854C3.97649 9.47358 4.28172 9.60001 4.59998 9.60001H11.4C11.6834 9.60043 11.9578 9.50055 12.1746 9.31804C12.3914 9.13554 12.5366 8.88219 12.5845 8.60288C12.6324 8.32357 12.5799 8.03632 12.4363 7.79199C12.2927 7.54767 12.0673 7.36205 11.8 7.26801C11.8927 6.98644 11.9531 6.69523 11.98 6.40001H13.2C13.3061 6.40001 13.4078 6.44216 13.4828 6.51717C13.5578 6.59218 13.6 6.69393 13.6 6.80001V12.8Z" fill="#EFC500"/>
<path d="M12.4 12.4001C12.6209 12.4001 12.8 12.221 12.8 12.0001C12.8 11.7792 12.6209 11.6001 12.4 11.6001C12.1791 11.6001 12 11.7792 12 12.0001C12 12.221 12.1791 12.4001 12.4 12.4001Z" fill="#EFC500"/>
<path d="M10.8 12.4001C11.0209 12.4001 11.2 12.221 11.2 12.0001C11.2 11.7792 11.0209 11.6001 10.8 11.6001C10.5791 11.6001 10.4 11.7792 10.4 12.0001C10.4 12.221 10.5791 12.4001 10.8 12.4001Z" fill="#EFC500"/>
</svg>
