<svg width="16" height="16" viewBox="0 0 16 16" fill="none" xmlns="http://www.w3.org/2000/svg">
<path d="M7.99998 14.4001C6.29048 14.4001 4.68328 13.7344 3.47448 12.5256C2.26568 11.3168 1.59998 9.7096 1.59998 8.0001C1.59998 6.2906 2.2657 4.68342 3.47448 3.4746C4.68325 2.26577 6.29048 1.6001 7.99998 1.6001C9.70948 1.6001 11.3167 2.2658 12.5255 3.4746C13.7343 4.6834 14.4 6.2906 14.4 8.0001C14.4 9.7096 13.7343 11.3168 12.5255 12.5256C11.3167 13.7344 9.70948 14.4001 7.99998 14.4001ZM7.99998 2.4001C4.91213 2.4001 2.39998 4.91225 2.39998 8.0001C2.39998 11.0879 4.91213 13.6001 7.99998 13.6001C11.0878 13.6001 13.6 11.0879 13.6 8.0001C13.6 4.91225 11.0878 2.4001 7.99998 2.4001Z" fill="#A64EDB" stroke="#A64EDB" stroke-width="0.3"/>
<path d="M7.99995 7.6C7.44855 7.6 6.99995 7.1514 6.99995 6.6C6.99995 6.0486 7.44855 5.6 7.99995 5.6C8.55135 5.6 8.99995 6.0486 8.99995 6.6C8.99995 6.8209 9.17903 7 9.39995 7C9.62088 7 9.79995 6.8209 9.79995 6.6C9.79995 5.74497 9.2005 5.0278 8.39995 4.84535V4.4C8.39995 4.1791 8.22088 4 7.99995 4C7.77903 4 7.59995 4.1791 7.59995 4.4V4.84535C6.7994 5.0278 6.19995 5.74497 6.19995 6.6C6.19995 7.59253 7.00743 8.4 7.99995 8.4C8.55135 8.4 8.99995 8.8486 8.99995 9.4C8.99995 9.9514 8.55135 10.4 7.99995 10.4C7.44855 10.4 6.99995 9.9514 6.99995 9.4C6.99995 9.1791 6.82088 9 6.59995 9C6.37903 9 6.19995 9.1791 6.19995 9.4C6.19995 10.255 6.7994 10.9722 7.59995 11.1547V11.6C7.59995 11.8209 7.77903 12 7.99995 12C8.22088 12 8.39995 11.8209 8.39995 11.6V11.1547C9.2005 10.9722 9.79995 10.255 9.79995 9.4C9.79995 8.40747 8.99248 7.6 7.99995 7.6Z" fill="#A64EDB"/>
</svg>
