<svg width="20" height="16" viewBox="0 0 20 16" fill="none" xmlns="http://www.w3.org/2000/svg">
<path d="M16.3333 2.6665H3.66666C2.748 2.6665 2 3.4145 2 4.33319V11.6665C2 12.5852 2.748 13.3332 3.66666 13.3332H16.3333C17.252 13.3332 18 12.5852 18 11.6665V4.33319C18 3.4145 17.252 2.6665 16.3333 2.6665ZM17.3333 11.6665C17.3333 12.2178 16.8847 12.6665 16.3333 12.6665H3.66666C3.11531 12.6665 2.66666 12.2178 2.66666 11.6665V4.33319C2.66666 3.78185 3.11531 3.33319 3.66666 3.33319H16.3333C16.8847 3.33319 17.3333 3.78185 17.3333 4.33319V11.6665H17.3333Z" fill="#00B2D9"/>
<path d="M17.6667 4.6665H2.33334C2.14934 4.6665 2 4.81585 2 4.99985V6.99985C2 7.18385 2.14934 7.33319 2.33334 7.33319H17.6667C17.8507 7.33319 18 7.18385 18 6.99985V4.99985C18 4.81585 17.8507 4.6665 17.6667 4.6665ZM17.3333 6.6665H2.66666V5.33316H17.3333V6.6665H17.3333Z" fill="#00B2D9"/>
<path d="M8.33334 9.3335H4.33334C4.14934 9.3335 4 9.48284 4 9.66684C4 9.85084 4.14934 10.0002 4.33334 10.0002H8.33334C8.51734 10.0002 8.66669 9.85081 8.66669 9.66681C8.66669 9.48281 8.51734 9.3335 8.33334 9.3335Z" fill="#00B2D9"/>
<path d="M8.33334 10.6665H4.33334C4.14934 10.6665 4 10.8158 4 10.9998C4 11.1838 4.14934 11.3332 4.33334 11.3332H8.33334C8.51734 11.3332 8.66669 11.1838 8.66669 10.9998C8.66666 10.8158 8.51734 10.6665 8.33334 10.6665Z" fill="#00B2D9"/>
<path d="M15 8.6665H14.3334C13.782 8.6665 13.3334 9.11516 13.3334 9.6665V10.3332C13.3334 10.8845 13.782 11.3332 14.3334 11.3332H15C15.5514 11.3332 16 10.8845 16 10.3332V9.6665C16 9.11519 15.5514 8.6665 15 8.6665ZM15.3334 10.3332C15.3334 10.5172 15.184 10.6665 15 10.6665H14.3334C14.1494 10.6665 14 10.5172 14 10.3332V9.66654C14 9.48254 14.1494 9.33319 14.3334 9.33319H15C15.184 9.33319 15.3334 9.48254 15.3334 9.66654V10.3332Z" fill="#00B2D9"/>
</svg>
