<svg width="18" height="16" viewBox="0 0 18 16" fill="none" xmlns="http://www.w3.org/2000/svg">
<path d="M15 7.25H11.5C10.9696 7.25 10.4609 7.46071 10.0858 7.83579C9.71071 8.21086 9.5 8.71957 9.5 9.25C9.5 9.78043 9.71071 10.2891 10.0858 10.6642C10.4609 11.0393 10.9696 11.25 11.5 11.25H13.5V12.75C13.4998 12.8826 13.4471 13.0096 13.3534 13.1034C13.2596 13.1971 13.1326 13.2498 13 13.25H5C4.60221 13.2499 4.22074 13.0918 3.93946 12.8105C3.65818 12.5293 3.50011 12.1478 3.5 11.75V4.25C3.50011 3.85221 3.65818 3.47074 3.93946 3.18946C4.22074 2.90818 4.60221 2.75011 5 2.75H12C12.1326 2.75 12.2598 2.80268 12.3536 2.89645C12.4473 2.99021 12.5 3.11739 12.5 3.25V3.75H5C4.86739 3.75 4.74021 3.80268 4.64645 3.89645C4.55268 3.99021 4.5 4.11739 4.5 4.25C4.5 4.38261 4.55268 4.50979 4.64645 4.60355C4.74021 4.69732 4.86739 4.75 5 4.75H13C13.1326 4.75017 13.2596 4.80291 13.3534 4.89664C13.4471 4.99037 13.4998 5.11744 13.5 5.25V5.7605C13.5 5.89311 13.5527 6.02029 13.6464 6.11405C13.7402 6.20782 13.8674 6.2605 14 6.2605C14.1326 6.2605 14.2598 6.20782 14.3536 6.11405C14.4473 6.02029 14.5 5.89311 14.5 5.7605V5.25C14.5224 4.93502 14.435 4.62202 14.2527 4.36419C14.0704 4.10636 13.8044 3.91961 13.5 3.8357V3.25C13.4999 2.85221 13.3418 2.47074 13.0605 2.18946C12.7793 1.90818 12.3978 1.75011 12 1.75H5C4.33701 1.75017 3.70123 2.01362 3.23242 2.48242C2.76362 2.95123 2.50017 3.58701 2.5 4.25V11.75C2.50017 12.413 2.76362 13.0488 3.23242 13.5176C3.70123 13.9864 4.33701 14.2498 5 14.25H13C13.3977 14.2496 13.779 14.0914 14.0602 13.8102C14.3414 13.529 14.4996 13.1477 14.5 12.75V11.25H15C15.1326 11.25 15.2598 11.1973 15.3536 11.1036C15.4473 11.0098 15.5 10.8826 15.5 10.75V7.75C15.5 7.61739 15.4473 7.49021 15.3536 7.39645C15.2598 7.30268 15.1326 7.25 15 7.25ZM14.5 10.25H11.5C11.2348 10.25 10.9804 10.1446 10.7929 9.95711C10.6054 9.76957 10.5 9.51522 10.5 9.25C10.5 8.98478 10.6054 8.73043 10.7929 8.54289C10.9804 8.35536 11.2348 8.25 11.5 8.25H14.5V10.25Z" fill="#F8A849"/>
</svg>
