<svg width="16" height="16" viewBox="0 0 16 16" fill="none" xmlns="http://www.w3.org/2000/svg">
<path d="M8.00021 14.4999C7.9137 14.4999 7.8277 14.4777 7.75021 14.4329L2.55396 11.4329C2.39921 11.3437 2.30396 11.1784 2.30396 10.9999V4.99994C2.30396 4.82144 2.39921 4.65619 2.55396 4.56694L7.75021 1.56694C7.90495 1.47769 8.09546 1.47769 8.25021 1.56694L13.446 4.56694C13.6007 4.65619 13.696 4.82144 13.696 4.99994V10.9999C13.696 11.1784 13.6007 11.3437 13.446 11.4329L8.25021 14.4329C8.17271 14.4777 8.08671 14.4999 8.00021 14.4999ZM3.30396 10.7112L8.00021 13.4224L12.696 10.7112V5.28869L8.00021 2.57744L3.30396 5.28869V10.7112Z" fill="#107DEF"/>
<path d="M8.00024 14.5C7.72424 14.5 7.50024 14.276 7.50024 14V8C7.50024 7.724 7.72424 7.5 8.00024 7.5C8.27624 7.5 8.50024 7.724 8.50024 8V14C8.50024 14.276 8.27624 14.5 8.00024 14.5Z" fill="#107DEF"/>
<path d="M7.99972 8.4998C7.91497 8.4998 7.82897 8.4783 7.75022 8.43255L2.55397 5.43255C2.31472 5.2948 2.23297 4.98905 2.37072 4.7498C2.50897 4.51055 2.81372 4.4283 3.05372 4.5668L8.24997 7.5668C8.48922 7.7048 8.57097 8.01055 8.43297 8.2498C8.34047 8.4103 8.17247 8.4998 7.99972 8.4998Z" fill="#107DEF"/>
<path d="M8.00075 8.4998C7.828 8.4998 7.66 8.41005 7.56725 8.2498C7.42925 8.01055 7.511 7.7048 7.75025 7.5668L12.946 4.5668C13.185 4.4283 13.4907 4.51055 13.629 4.7498C13.767 4.98905 13.6852 5.2948 13.446 5.4328L8.25025 8.4328C8.17175 8.4783 8.0855 8.4998 8.00075 8.4998Z" fill="#107DEF"/>
</svg>
