<svg width="16" height="16" viewBox="0 0 16 16" fill="none" xmlns="http://www.w3.org/2000/svg">
<path d="M12.7408 11.2594H9.77779C9.65991 11.2594 9.54687 11.2126 9.46352 11.1292C9.38017 11.0459 9.33334 10.9328 9.33334 10.815C9.33334 10.6971 9.38017 10.584 9.46352 10.5007C9.54687 10.4173 9.65991 10.3705 9.77779 10.3705H12.7408C12.9371 10.3702 13.1253 10.2921 13.2642 10.1532C13.403 10.0144 13.4812 9.82613 13.4815 9.62977V3.70385C13.4812 3.50749 13.403 3.31926 13.2642 3.18041C13.1253 3.04156 12.9371 2.96342 12.7408 2.96311H3.25927C3.06291 2.96342 2.87468 3.04156 2.73583 3.18041C2.59698 3.31926 2.51884 3.50749 2.51853 3.70385V9.62977C2.51884 9.82613 2.59698 10.0144 2.73583 10.1532C2.87468 10.2921 3.06291 10.3702 3.25927 10.3705H8.00001C8.11788 10.3705 8.23093 10.4173 8.31428 10.5007C8.39763 10.584 8.44445 10.6971 8.44445 10.815C8.44445 10.9328 8.39763 11.0459 8.31428 11.1292C8.23093 11.2126 8.11788 11.2594 8.00001 11.2594H3.25927C2.82716 11.2591 2.41284 11.0873 2.10729 10.7817C1.80175 10.4762 1.62995 10.0619 1.62964 9.62977V3.70385C1.62995 3.27174 1.80175 2.85742 2.10729 2.55187C2.41284 2.24633 2.82716 2.07453 3.25927 2.07422H12.7408C13.1729 2.07453 13.5872 2.24633 13.8927 2.55187C14.1983 2.85742 14.3701 3.27174 14.3704 3.70385V9.62977C14.3701 10.0619 14.1983 10.4762 13.8927 10.7817C13.5872 11.0873 13.1729 11.2591 12.7408 11.2594Z" fill="#06C270"/>
<path d="M7.99995 14.8148C7.94158 14.8149 7.88376 14.8035 7.82984 14.7811C7.77593 14.7587 7.72699 14.7258 7.68588 14.6844L5.9081 12.9066C5.8296 12.8224 5.78686 12.7109 5.78889 12.5958C5.79092 12.4806 5.83756 12.3708 5.91899 12.2894C6.00042 12.2079 6.11028 12.1613 6.22542 12.1592C6.34056 12.1572 6.452 12.2 6.53625 12.2785L7.99995 13.7416L9.46366 12.2785C9.54791 12.2 9.65935 12.1572 9.77449 12.1592C9.88963 12.1613 9.99949 12.2079 10.0809 12.2894C10.1623 12.3708 10.209 12.4806 10.211 12.5958C10.2131 12.7109 10.1703 12.8224 10.0918 12.9066L8.31403 14.6844C8.27292 14.7258 8.22398 14.7587 8.17007 14.7811C8.11615 14.8035 8.05833 14.8149 7.99995 14.8148Z" fill="#06C270"/>
<path d="M7.99999 14.2222C7.88211 14.2222 7.76907 14.1754 7.68572 14.092C7.60237 14.0087 7.55554 13.8957 7.55554 13.7778V8.44444C7.55554 8.32657 7.60237 8.21352 7.68572 8.13017C7.76907 8.04683 7.88211 8 7.99999 8C8.11786 8 8.23091 8.04683 8.31426 8.13017C8.39761 8.21352 8.44443 8.32657 8.44443 8.44444V13.7778C8.44443 13.8957 8.39761 14.0087 8.31426 14.092C8.23091 14.1754 8.11786 14.2222 7.99999 14.2222Z" fill="#06C270"/>
<path d="M13.9259 5.926H2.07408C1.95621 5.926 1.84316 5.87917 1.75981 5.79582C1.67646 5.71247 1.62964 5.59943 1.62964 5.48155C1.62964 5.36368 1.67646 5.25063 1.75981 5.16728C1.84316 5.08393 1.95621 5.03711 2.07408 5.03711H13.9259C14.0438 5.03711 14.1569 5.08393 14.2402 5.16728C14.3236 5.25063 14.3704 5.36368 14.3704 5.48155C14.3704 5.59943 14.3236 5.71247 14.2402 5.79582C14.1569 5.87917 14.0438 5.926 13.9259 5.926Z" fill="#06C270"/>
<path d="M5.62969 8.00022H3.85192C3.73404 8.00022 3.62099 7.95339 3.53765 7.87004C3.4543 7.78669 3.40747 7.67365 3.40747 7.55577C3.40747 7.4379 3.4543 7.32485 3.53765 7.2415C3.62099 7.15815 3.73404 7.11133 3.85192 7.11133H5.62969C5.74757 7.11133 5.86061 7.15815 5.94396 7.2415C6.02731 7.32485 6.07414 7.4379 6.07414 7.55577C6.07414 7.67365 6.02731 7.78669 5.94396 7.87004C5.86061 7.95339 5.74757 8.00022 5.62969 8.00022Z" fill="#06C270"/>
<path d="M5.0371 9.48117H3.85192C3.73404 9.48117 3.62099 9.43435 3.53765 9.351C3.4543 9.26765 3.40747 9.1546 3.40747 9.03673C3.40747 8.91886 3.4543 8.80581 3.53765 8.72246C3.62099 8.63911 3.73404 8.59229 3.85192 8.59229H5.0371C5.15497 8.59229 5.26802 8.63911 5.35137 8.72246C5.43472 8.80581 5.48154 8.91886 5.48154 9.03673C5.48154 9.1546 5.43472 9.26765 5.35137 9.351C5.26802 9.43435 5.15497 9.48117 5.0371 9.48117Z" fill="#06C270"/>
</svg>
